<?xml version="1.0" encoding="UTF-8"?>
<svg id="Livello_1" xmlns="http://www.w3.org/2000/svg" version="1.1" viewBox="0 0 375.6 568.1">
  <!-- Generator: Adobe Illustrator 30.1.0, SVG Export Plug-In . SVG Version: 2.1.1 Build 136)  -->
  <defs>
    <style>
      .st0 {
        fill: #d9d9d9;
      }

      .st1 {
        fill: #5b2926;
      }

      .st2 {
        fill: silver;
      }

      .st3 {
        fill: #b22222;
      }

      .st4 {
        fill: #a3a3a3;
      }
    </style>
  </defs>
  <path class="st3" d="M155.2,133.1c-1.8,1.1-2.2-1.3-3.1-2.2.7-.1,1.7,0,2.5.1s1.3,1.6.6,2.1h0Z"/>
  <path class="st3" d="M238.3,19.6c-.3,4.9.8,2.4,4,9.5s2.6,7.3,3.7,11.1c0,0-1.2,0-1.3.5-2.1,8.1-4.8,15.7-9.6,22.6l-3.6-1.9c-4,4.3-8.6,7.6-11.7,13l12-8.8c-4.1,4.7-7.9,9.2-13.2,12.3.6-1.1.9-3.7-.4-3.7-22,16.5-44.1,25.8-66.3,40.6-22.2,14.8-7.4,3.2-10.6,5.8-3.2,2.6-6.2,4.6-10.2,7.3,5.6-.6,10.4-7.4,18-8.2-1.9,1.5-4.6,2.4-5.9,4.7,1.6,1.3,1.8,7.1,4,4.8s1.2-1.4,2-1.9c1,1.4,1.7,2.9,2.9,3.9-1.7.3-4.3-.9-5.7,0s-.9,2.4-.3,2.7,2.1.2,2.6.6c2.3,2-1.6,3.1-1.8,6.2,3.7-1.6,5.9-4.9,8.3-7.4,8.2-4.8,15.1-11.4,23.6-16.5l34.3-20.7c10.4-6.3,28-18.3,31-29.8,7.3-9.5,5.8-15,5.7-26.2h1.5c7.4,25.3-11.4,47.7-32,60.4l-39.5,24.3c-20.8,12.8-42.5,30.3-47,55.5-1.6,9.1-1.5,5.7.3,14.3,4.5,21.6,24.4,38.8,42.2,50.6l37.1,24.7c2.4,1.6,3.8,2.5,6.2,3.9,10.6,6.3,20,14.4,28.6,23.4,25.1,26.4,29.9,65.4,5.7,94.9-10.4,12.7-22.5,22.8-36.7,31l-28.5,16.5c-9.1,5.3-17.4,11.1-24.3,18.8-16.5,18.3-1.1,37.9,14.9,50.6l-3.4-49.8c-.6-8.8,21.1-21.8,20.8-14.9l-2.6,73.9c0,2.1-1.8,2.8-2.9,3.4l20.9,19.7c2.4,2.3,4.8,5,3.5,8.8l-22.7-11.4c-.7,10.8-.8,20.4-3.4,29.6h-2.5c-2.6-10.3-3.8-20.9-4.4-32s-1.4-5-4.2-6.7c-12.2-7.5-23.8-15.6-33.7-25.9-17-17.6-16.8-39.6-2.7-58.7,6.3-8.6,14.4-15.3,23.1-21.5l26.4-18.6c9-6.3,16.8-13,23.5-21.9,10.1-13.4,13-31.5,6.6-47.4-8-19.7-32.2-32.2-49.6-42.7l-32.9-20c-11.4-6.9-21.4-14.7-30.5-24.3-21.6-23-27.7-55.5-15.5-84.6,6.1-14.4,16.4-24.9,29.1-33.6,12-8.1,23.8-15.2,36.5-22.5l49.3-28.6c10.4-6,19.1-13.7,25.7-23.5,8.2-12.1,8-25.8.3-38.8,3.3-1.5,3.8,1.4,5.1,2.3l.2.3h0ZM235.1,58.6c0-.3-.2-.5-.5-.5s-.5.2-.5.5.2.5.5.5.5-.2.5-.5ZM142.1,127.6c0-.3-.2-.5-.5-.5s-.5.2-.5.5.2.5.5.5.5-.2.5-.5ZM130.2,129.1c0-.4-.3-.6-.6-.6s-.6.3-.6.6.3.6.6.6.6-.3.6-.6ZM144.1,143.6c1.8-.3,2.5-1.3,2.9-2.6-1.5.6-2,1.7-2.9,2.6ZM137.9,153.1c0-.5-.4-.9-.9-.9s-.9.4-.9.9.4.9.9.9.9-.4.9-.9ZM136.1,155.6c0-.3-.2-.5-.5-.5s-.5.2-.5.5.2.5.5.5.5-.2.5-.5ZM126.1,182.1c-1.1,10.5,1.4,20.1,6.6,29.5s4.5,6.1,6.7,9.5c10.6,16.3,33.9,30.2,50.5,41.1l30.2,19.9c4.7,3.1,8.2,8,14,10.1.5.3.8,1.2,1.9,1.6.6.3.9.4,1.1-.5.3-1.4-1.3-1.1-2.3-2.2-4.6-4.9-10.3-9.3-16.3-13.3l-14.4-9.6-27.9-18.1-17.1-12c-6.8-4.8-12.3-11.6-19-16.9-7.9-16.1-12.4-17.7-13.1-39.1,1.1-3.3,1.8-7.7,2.7-11.5s4.3-8.4,4.7-13.5c-5.3,7.1-8.2,15.6-8.4,25h.1ZM240.2,296.1c0-.4-.3-.6-.6-.6s-.6.3-.6.6.3.6.6.6.6-.3.6-.6ZM262.1,350.1c-.6,12.6-3.9,13.2-4,20.1s5.7-5.6,6-16.1.2-10.7,0-15.9c.8-.9,1.2-2.1.7-3.2s-.8-3.5-2.6-3.2c-3.5-12.9-9.6-25.2-20-35-2,1.4-.7,3.3.6,4.7,12.7,13.3,20.2,30.6,19.4,48.6h-.1ZM216.2,390.1c0-.4-.3-.6-.6-.6s-.6.3-.6.6.3.6.6.6.6-.3.6-.6ZM194.5,409c8.1-3.7,13.6-10.1,19.3-16.7-6,5.7-13.6,9.6-19.3,16.7ZM173.3,426.1c4.6-3.4,8.1-7.4,13.4-9.1,1.8-3.7,7.1-3.2,7.6-8.4-5.8,4.9-11.4,8-17.2,11.9-8.3,5.6-15.6,12.2-23.8,18.8,2.4,2.4,3.3-.9,4.6-1.9l15.3-11.3h0ZM149.2,443.7c2.2-.7,3.1-2,3.8-3.6-1.9.9-2.7,2.3-3.8,3.6ZM190.7,515.6c.9-8.7,0-16.3-.2-24.5-.1-8.2.6-15.9,1-24l1-19.5c-1.7-.1-2.9-.3-3.4-1.4-.7,2.1-1.9,2.6-3.7,3.5l3.5,2.4-.6,46c0-3-2.7,14.8,2.4,17.5ZM151.3,486.1c2.8,6.7,5.8,14.1,11.4,19.3l9.2,8.8c4.2,4,8.1,7.8,13,11s7.5,8.4,13.3,9.7c1.6,3.7,5.4,5.2,8.9,6.9-1.8-4-5.4-6.1-8.9-6.9-.9-2.1-9-9.1-10.1-9.9-6.5-4.6-12.1-9.7-17.9-15.2-12.3-11.9-9.1-9.3-17.2-23.8-.4-4.7-1.4-9.3-2.5-14.1-1,5-1,9.5.7,14.2h.1Z"/>
  <path class="st2" d="M50.8,151c-.8,23.6-.7,47.4-.2,71.3s3.4,12.2,8.5,15.5l39.5,25.4,44.4,28.6c4.7,3.1,10.1,5,13.9,9.2.5,10.2.2,19.7,1.8,29.1-1.9,9.3,0,19,.3,28.9l.7,27.1c-3.6-.4-7.4.2-11.1-2.1,2.4-1.2,4.4.2,6.5-.3-2-1.4-3.9-.8-5.4-2.9l6.5-1.9c-3.3-7.3-12-1.7-22-7.1s-.5-2.2-.7-2.6c-1.6-2.7-3.9,4.3-10,2.2s-11.3-1.9-10-4c.2-1,0-2,.2-3,0-4.4,1.3-9.3-.5-13.3,0-.2,0-.6,0-.8,0-.4,0-.7-.2-1.1.5-1.2.7-2.5.7-3.8s0-1.7,0-2.5c-.3-1.8-.3-3.7,0-5.5s1.5-10.3-1.6-9.4c-1.2-4.4-26.2-19.2-32-22.7s-10-7.5-15.7-10.3-8.1-5.4-12.4-7.9l-15.4-9.3c-11.3-6.8-20.4-13.5-30.7-18.7l-.3-98.8.5-7.1c1.4-19.1,1.5-27.9,12.9-44.7l6.9-10.1c.6-.9,1.5-2.9.3-3.1.2-2.9,13.7-10.7,15.8-12-2.1,3.4-6.4,4.6-9.3,8,2.2,2.8,3.6,7.2,1,9.9s-5.2-.2-6.3,3.2c2.2,1.6,5.3-.3,7.2,1.4s.2,3,1.1,3.2c1.5.4,3.6.6,4.6-.6s1.5-3.4,2.7-3.9,5.6-1.3,6,.8-2.9,2.5-4,3.9c1.2,1.3,2.9,1.4,3.5,3.6-2.2,1.9-14.4,0-12.4,3.2s12.9-1.2,17,1.1c-2.7,2.8-5.5.5-8,2.2,1.2.5,2.5.3,3.4.9s2.2,2.9,1.4,3.7c-3,1.6-6.6-.3-10,1.2,4.2,2,8.9,1,13.2,1,.5,1.3.2,2.8-.7,2.9-7.8,1-5.1,2.5-7.9,2.4s-2.5-3.5-6-2.3c-7.9,2.8,10.3,3.8,9,5.1-1.8,1.4-3.4.5-5.6,1.6,4.1,7.9,7.1,2.2,8.3,9.1-7.5.3-14.2.9-21.7,2.2,2.9,4.2,18.8-.4,21.5,1.6-2.4,3.3-5.1,0-7.9,2,2.9,1.1,6,0,8.9.4h-.2ZM32,116.1c-.5-2.1-4-1.4-4,0s4.3,1.4,4,0Z"/>
  <path class="st2" d="M47,150.7c-.8,23.6-.7,47.4-.2,71.3s3.4,12.2,8.5,15.5l39.5,25.4,44.4,28.6c4.7,3.1,10.1,5,13.9,9.2.5,10.2.2,19.7,1.8,29.1-1.9,9.3,0,19,.3,28.9l.7,27.1c-3.6-.4-7.4.2-11.1-2.1,2.4-1.2,4.4.2,6.5-.3-2-1.4-3.9-.8-5.4-2.9l6.5-1.9c-3.3-7.3-12-1.7-22-7.1s-.5-2.2-.7-2.6c-1.6-2.7-3.9,4.3-10,2.2s-11.3-1.9-10-4c.2-1,0-2,.2-3,0-4.4,1.3-9.3-.5-13.3,0-.2,0-.6,0-.8,0-.4,0-.7-.2-1.1.5-1.2.7-2.5.7-3.8s0-1.7,0-2.5c-.3-1.8-.3-3.7,0-5.5s1.5-10.3-1.6-9.4c-1.2-4.4-26.2-19.2-32-22.7s-10-7.5-15.7-10.3-8.1-5.4-12.4-7.9l-15.4-9.3c-11.3-6.8-20.4-13.5-30.7-18.7l-.3-98.8.5-7.1c1.4-19.1,1.5-27.9,12.9-44.7l6.9-10.1c.6-.9,5.3-2.6,4.1-2.8.2-2.9,13.7-10.7,15.8-12-2.1,3.4-6.6,7.7-13.1,7.7,2.2,2.8,3.6,7.2,1,9.9s-5.2-.2-6.3,3.2c2.2,1.6,5.3-.3,7.2,1.4s.2,3,1.1,3.2c1.5.4,3.6.6,4.6-.6s1.5-3.4,2.7-3.9,5.6-1.3,6,.8-2.9,2.5-4,3.9c1.2,1.3,2.9,1.4,3.5,3.6-2.2,1.9-14.4,0-12.4,3.2,2,3.2,12.9-1.2,17,1.1-2.7,2.8-5.5.5-8,2.2,1.2.5,2.5.3,3.4.9s2.2,2.9,1.4,3.7c-3,1.6-6.6-.3-10,1.2,4.2,2,8.9,1,13.2,1,.5,1.3.2,2.8-.7,2.9-7.8,1-5.1,2.5-7.9,2.4s-2.5-3.5-6-2.3c-7.9,2.8,10.3,3.8,9,5.1-1.8,1.4-3.4.5-5.6,1.6,4.1,7.9,7.1,2.2,8.3,9.1-7.5.3-14.2.9-21.7,2.2,2.9,4.2,18.8-.4,21.5,1.6-2.4,3.3-5.1,0-7.9,2,2.9,1.1,6,0,8.9.4h-.2q0-.1,0-.1ZM28.2,115.8c-.5-2.1-4-1.4-4,0s4.3,1.4,4,0Z"/>
  <path class="st2" d="M50.9,149.7c-.8,23.6-.7,47.4-.2,71.3s3.4,12.2,8.5,15.5l39.5,25.4,44.4,28.6c4.7,3.1,10.1,5,13.9,9.2.5,10.2.2,19.7,1.8,29.1-1.9,9.3,0,19,.3,28.9l.7,27.1c-3.6-.4-7.4.2-11.1-2.1,2.4-1.2,4.4.2,6.5-.3-2-1.4-3.9-.8-5.4-2.9l6.5-1.9c-3.3-7.3-12-1.7-22-7.1s-.5-2.2-.7-2.6c-1.6-2.7-3.9,4.3-10,2.2s-11.3-1.9-10-4c.2-1,0-2,.2-3,0-4.4,1.3-9.3-.5-13.3,0-.2,0-.6,0-.8,0-.4,0-.7-.2-1.1.5-1.2.7-2.5.7-3.8s0-1.7,0-2.5c-.3-1.8-.3-3.7,0-5.5s1.5-10.3-1.6-9.4c-1.2-4.4-26.2-19.2-32-22.7s-10-7.5-15.7-10.3-8.1-5.4-12.4-7.9l-15.4-9.3c-11.3-6.8-20.4-13.5-30.7-18.7l-.3-98.8.5-7.1c1.4-19.1,1.5-27.9,12.9-44.7l6.9-10.1c.6-.9,5.3-2.6,4.1-2.8.2-2.9,13.7-10.7,15.8-12-2.1,3.4-6.6,7.7-13.1,7.7,2.2,2.8,3.6,7.2,1,9.9s-5.2-.2-6.3,3.2c2.2,1.6,5.3-.3,7.2,1.4s.2,3,1.1,3.2c1.5.4,3.6.6,4.6-.6s1.5-3.4,2.7-3.9,5.6-1.3,6,.8-2.9,2.5-4,3.9c1.2,1.3,2.9,1.4,3.5,3.6-2.2,1.9-14.4,0-12.4,3.2,2,3.2,12.9-1.2,17,1.1-2.7,2.8-5.5.5-8,2.2,1.2.5,2.5.3,3.4.9s2.2,2.9,1.4,3.7c-3,1.6-6.6-.3-10,1.2,4.2,2,8.9,1,13.2,1,.5,1.3.2,2.8-.7,2.9-7.8,1-5.1,2.5-7.9,2.4s-2.5-3.5-6-2.3c-7.9,2.8,10.3,3.8,9,5.1-1.8,1.4-3.4.5-5.6,1.6,4.1,7.9,7.1,2.2,8.3,9.1-7.5.3-14.2.9-21.7,2.2,2.9,4.2,18.8-.4,21.5,1.6-2.4,3.3-5.1,0-7.9,2,2.9,1.1,6,0,8.9.4h-.2q0-.1,0-.1ZM32.1,114.8c-.5-2.1-4-1.4-4,0s4.3,1.4,4,0Z"/>
  <path class="st2" d="M50.9,354.6v19.2s-.7,1.6-.3,2.2.6.8,1.3.9v4.2c0,13-2.5,43.9.2,56.9.2.5.8,1.5,1,2,.3,1.1,3.2,2.1,3.2,2.1h41.9c3.8-.3,9.3.2,10.3-3.8s-1.7-1.9-2.4-3.4c3.2-6.9,3.1-15.1,3.1-22.9.5.1,1.1.2,1.5.2,1.1,0,1.5-.9,1.6-2.2,1-14.6-.9-28.9,1.3-42.8-1.3,2.1,5.8,2.5,10,4,6.1,2.1,8.3-4.9,10-2.2s.3,2.3.7,2.6c10,5.4,18.7-.2,22,7.1l-6.5,1.9c1.5,2.1,3.4,1.5,5.4,2.9-2.1.6-4.1-.9-6.5.3,3.6,2.3,7.5,1.7,11.1,2.1l.2,4.8c-1.5,2-1.6,5.5-.1,7.4v11.9c.2,1,1.2,1.4,1.6,1.4.8.1,2.4-1.4,2.4-1.4v-15.1s.7-4.1-1-5.2v-17.6h1.2c-.2,2.6.7,5.1.8,8.1l.4,25.8c0,4.3-.7,7.6-4,10.3-6.5,5.2-13.5,9.7-19.2,15.8-11.4,12.4-1.9-2.9-13.1,17.5-11.1,20.4-5.8,21.1-5.4,32-6.4-.9.3-25.6,1.2-29.8.5-.7,3-2.8,1.7-3.7-2.4-1.4-2,2.5-2.7,3.7-3.9,6.2-5.9,13.2-5.9,20.9v13.7c-3.2.6-6.4.7-10.2.7H7.7c-2.6,0-4.7,1.4-6.7.8l-.3-136.4c2.9,3.1,5.9,2.5,9.9,2.6l40.5.4h-.2ZM157.7,413.9c-4.7-1-9.3-1.2-13.5-.2.2,1.2,1,1.9,1.4,2.3,3.4,3.7-6-1.2-5.5,4.2,10.6-2.1,3.9,5.3,17.6-6.3ZM137.7,418.6c0-.4-.3-.6-.6-.6s-.6.3-.6.6.3.6.6.6.6-.3.6-.6Z"/>
  <path class="st2" d="M50.9,358v19.2s-.7,1.6-.3,2.2.6.8,1.3.9v4.2c0,13-2.5,43.9.2,56.9.2.5.8,1.5,1,2,.3,1.1,3.2,2.1,3.2,2.1h41.9c3.8-.3,9.3.2,10.3-3.8s-1.7-1.9-2.4-3.4c3.2-6.9,3.1-15.1,3.1-22.9.5.1,1.1.2,1.5.2,1.1,0,1.5-.9,1.6-2.2,1-14.6-.9-28.9,1.3-42.8-1.3,2.1,5.8,2.5,10,4,6.1,2.1,8.3-4.9,10-2.2s.3,2.3.7,2.6c10,5.4,18.7-.2,22,7.1l-6.5,1.9c1.5,2.1,3.4,1.5,5.4,2.9-2.1.6-4.1-.9-6.5.3,3.6,2.3,7.5,1.7,11.1,2.1l.2,4.8c-1.5,2-1.6,5.5-.1,7.4v11.9c.2,1,1.2,1.4,1.6,1.4.8.1,2.4-1.4,2.4-1.4v-15.1s.7-4.1-1-5.2v-17.6h1.2c-.2,2.6.7,5.1.8,8.1l.4,25.8c0,4.3-.7,7.6-4,10.3-6.5,5.2-13.5,9.7-19.2,15.8-11.4,12.4-1.9-2.9-13.1,17.5-11.1,20.4-5.8,21.1-5.4,32-6.4-.9.3-25.6,1.2-29.8.5-.7,3-2.8,1.7-3.7-2.4-1.4-2,2.5-2.7,3.7-3.9,6.2-5.9,13.2-5.9,20.9v13.7c-3.2.6-6.4.7-10.2.7H7.7c-2.6,0-4.7,1.4-6.7.8l-.3-136.4c2.9,3.1,5.9,2.5,9.9,2.6l40.5.4h-.2ZM157.7,417.3c-4.7-1-9.3-1.2-13.5-.2.2,1.2,1,1.9,1.4,2.3,3.4,3.7-6-1.2-5.5,4.2,10.6-2.1,3.9,5.3,17.6-6.3ZM137.7,422c0-.4-.3-.6-.6-.6s-.6.3-.6.6.3.6.6.6.6-.3.6-.6Z"/>
  <path class="st2" d="M50.3,352.9v19.2s-.7,1.6-.3,2.2.6.8,1.3.9v4.2c0,13-2.5,43.9.2,56.9.2.5.8,1.5,1,2,.3,1.1,3.2,2.1,3.2,2.1h41.9c3.8-.3,9.3.2,10.3-3.8s-1.7-1.9-2.4-3.4c3.2-6.9,3.1-15.1,3.1-22.9.5.1,1.1.2,1.5.2,1.1,0,1.5-.9,1.6-2.2,1-14.6-.9-28.9,1.3-42.8-1.3,2.1,5.8,2.5,10,4,6.1,2.1,8.3-4.9,10-2.2s.3,2.3.7,2.6c10,5.4,18.7-.2,22,7.1l-6.5,1.9c1.5,2.1,3.4,1.5,5.4,2.9-2.1.6-4.1-.9-6.5.3,3.6,2.3,7.5,1.7,11.1,2.1l.2,4.8c-1.5,2-1.6,5.5-.1,7.4v11.9c.2,1,1.2,1.4,1.6,1.4.8.1,2.4-1.4,2.4-1.4v-15.1s.7-4.1-1-5.2v-17.6h1.2c-.2,2.6.7,5.1.8,8.1l.4,25.8c0,4.3-.7,7.6-4,10.3-6.5,5.2-13.5,9.7-19.2,15.8-11.4,12.4-1.9-2.9-13.1,17.5-11.1,20.4-5.8,21.1-5.4,32-6.4-.9.3-25.6,1.2-29.8.5-.7,3-2.8,1.7-3.7-2.4-1.4-2,2.5-2.7,3.7-3.9,6.2-5.9,13.2-5.9,20.9v13.7c-3.2.6-6.4.7-10.2.7H7c-2.6,0-4.7,1.4-6.7.8l-.3-136.4c2.9,3.1,5.9,2.5,9.9,2.6l40.5.4h-.1ZM157.1,412.2c-4.7-1-9.3-1.2-13.5-.2.2,1.2,1,1.9,1.4,2.3,3.4,3.7-6-1.2-5.5,4.2,10.6-2.1,3.9,5.3,17.6-6.3ZM137.1,416.9c0-.4-.3-.6-.6-.6s-.6.3-.6.6.3.6.6.6.6-.3.6-.6Z"/>
  <path class="st2" d="M61.1,77l-10.7,3.6c1.9,3,3.6.4,5.3,0,9.1-2.6,18.3-4.3,27.3-4.3-.5,1.7,1.2,1.9,2.7,1.8s2.1-.5,1.7-1.9h27c-.2,5.3,5.6,5.3,10,6.1,4.4.8,7.2,3.8,12.1,2.8-3.3,2-6.3,0-10.3,1,1.3,2,1.4,3.9-.3,6.4l3.7.6c1,.2,3.3,9.3,3.8,10.8-8.4,8.4-18.9,12.4-28.1,21.6-3.8.2-25.1-1.8-25.3.6-.8-.3-1.8,0-2.7,0s-3-.4-3.3,1h-1.7c-.5,0-1,0-1.5,0s-1.5.9-.8,1.7c-3.9.1-6.5,2.8-9,5.4s-3.5,6-2.7,9.7c-.5,1.3-1,2.8-1.3,4.1-3,.7-.3-6.8-3.1-6.3-1,3-2.7,6.2-2.8,9.2-3-.4-6,.7-8.9-.4,2.8-2,5.6,1.3,7.9-2-2.7-1.9-18.7,2.6-21.6-1.6,7.5-1.3,14.3-1.9,21.8-2.2-1.1-6.9-4.2-1.2-8.3-9.1,2.2-1.1,3.9-.2,5.6-1.6,1.4-1.3-17-2.4-9-5.1,7.9-2.7,3.3,2.2,6,2.3s0-1.4,7.9-2.4,1.1-1.6.7-2.9c-4.3,0-9,1-13.3-1,3.4-1.5,7,.3,10-1.2.7-.8-.6-3.1-1.4-3.7s-2.2-.4-3.4-.9c2.5-1.7,5.3.5,8-2.2-4.1-2.3-15.5,1.3-17.1-1.1-1.6-2.4,10.2-1.2,12.4-3.2-.6-2.2-2.2-2.3-3.5-3.6,1.1-1.4,4.5-1.7,4-3.9s-4.3-1.4-6-.8-1.6,2.4-2.7,3.9-3.1,1-4.6.6-.2-2.4-1.1-3.2c-1.9-1.8-4.9.2-7.2-1.4,1.1-3.4,4.5-1.4,6.3-3.2,2.6-2.7,1.3-7.1-1-9.9,2.9-3.4,7.2-4.6,9.3-8,5.8-3.5,12.1-5.6,18.7-7.6l.4,1.7h0ZM48.7,82.6c0-.4-.3-.6-.6-.6s-.6.3-.6.6.3.6.6.6.6-.3.6-.6ZM47.2,94.2c-1.6-.9-4.9-1.4-5.8-.5s.4,1.2.4,2c1.5-.5,3.1-.4,5.4-1.5ZM58,123.1c-.5-2.1-4-1.4-4,0s4.3,1.4,4,0ZM55.1,133.7c-2.9-.9-4.6-1-6.1,0,2.4.7,4.3.7,6.1,0ZM56.2,140.1c0-.4-.3-.6-.6-.6s-.6.3-.6.6.3.6.6.6.6-.3.6-.6Z"/>
  <path class="st2" d="M63.9,77l-10.7,3.6c1.9,3,3.6.4,5.3,0,9.1-2.6,18.3-4.3,27.3-4.3-.5,1.7,1.2,1.9,2.7,1.8s2.1-.5,1.7-1.9h27c-.2,5.3,5.6,5.3,10,6.1,4.4.8,7.2,3.8,12.1,2.8-3.3,2-6.3,0-10.3,1,1.3,2,1.4,3.9-.3,6.4l3.7.6c1,.2,3.3,9.3,3.8,10.8-8.4,8.4-18.9,12.4-28.1,21.6-3.8.2-25.1-1.8-25.3.6-.8-.3-1.8,0-2.7,0s-3-.4-3.3,1h-1.7c-.5,0-1,0-1.5,0s-1.5.9-.8,1.7c-3.9.1-6.5,2.8-9,5.4s-3.5,6-2.7,9.7c-.5,1.3-1,2.8-1.3,4.1-3,.7-.3-6.8-3.1-6.3-1,3-2.7,6.2-2.8,9.2-3-.4-6,.7-8.9-.4,2.8-2,5.6,1.3,7.9-2-2.7-1.9-18.7,2.6-21.6-1.6,7.5-1.3,14.3-1.9,21.8-2.2-1.1-6.9-4.2-1.2-8.3-9.1,2.2-1.1,3.9-.2,5.6-1.6,1.4-1.3-17-2.4-9-5.1,7.9-2.7,3.3,2.2,6,2.3s0-1.4,7.9-2.4,1.1-1.6.7-2.9c-4.3,0-9,1-13.3-1,3.4-1.5,7,.3,10-1.2.7-.8-.6-3.1-1.4-3.7s-2.2-.4-3.4-.9c2.5-1.7,5.3.5,8-2.2-4.1-2.3-15.5,1.3-17.1-1.1-1.6-2.4,10.2-1.2,12.4-3.2-.6-2.2-2.2-2.3-3.5-3.6,1.1-1.4,4.5-1.7,4-3.9s-4.3-1.4-6-.8-1.6,2.4-2.7,3.9-3.1,1-4.6.6-.2-2.4-1.1-3.2c-1.9-1.8-4.9.2-7.2-1.4,1.1-3.4,4.5-1.4,6.3-3.2,2.6-2.7,1.3-7.1-1-9.9,2.9-3.4,7.2-4.6,9.3-8,5.8-3.5,12.1-5.6,18.7-7.6l.4,1.7h0ZM51.6,82.6c0-.4-.3-.6-.6-.6s-.6.3-.6.6.3.6.6.6.6-.3.6-.6ZM50.1,94.2c-1.6-.9-4.9-1.4-5.8-.5s.4,1.2.4,2c1.5-.5,3.1-.4,5.4-1.5ZM60.9,123.1c-.5-2.1-4-1.4-4,0s4.3,1.4,4,0ZM58,133.7c-2.9-.9-4.6-1-6.1,0,2.4.7,4.3.7,6.1,0ZM59.1,140.1c0-.4-.3-.6-.6-.6s-.6.3-.6.6.3.6.6.6.6-.3.6-.6Z"/>
  <path class="st2" d="M63.9,75.8l-10.7,3.6c1.9,3,3.6.4,5.3,0,9.1-2.6,18.3-4.3,27.3-4.3-.5,1.7,1.2,1.9,2.7,1.8s2.1-.5,1.7-1.9h27c-.2,5.3,5.6,5.3,10,6.1,4.4.8,7.2,3.8,12.1,2.8-3.3,2-6.3,0-10.3,1,1.3,2,1.4,3.9-.3,6.4l3.7.6c1,.2,3.3,9.3,3.8,10.8-8.4,8.4-18.9,12.4-28.1,21.6-3.8.2-25.1-1.8-25.3.6-.8-.3-1.8,0-2.7,0s-3-.4-3.3,1h-1.7c-.5,0-1,0-1.5,0s-1.5.9-.8,1.7c-3.9,0-6.5,2.8-9,5.4s-3.5,6-2.7,9.7c-.5,1.3-1,2.8-1.3,4.1-3,.7-.3-6.8-3.1-6.3-1,3-2.7,6.2-2.8,9.2-3-.4-6,.7-8.9-.4,2.8-2,5.6,1.3,7.9-2-2.7-1.9-18.7,2.6-21.6-1.6,7.5-1.3,14.3-1.9,21.8-2.2-1.1-6.9-4.2-1.2-8.3-9.1,2.2-1.1,3.9-.2,5.6-1.6,1.4-1.3-17-2.4-9-5.1,7.9-2.7,3.3,2.2,6,2.3s0-1.4,7.9-2.4,1.1-1.6.7-2.9c-4.3,0-9,1-13.3-1,3.4-1.5,7,.3,10-1.2.7-.8-.6-3.1-1.4-3.7s-2.2-.4-3.4-.9c2.5-1.7,5.3.5,8-2.2-4.1-2.3-15.5,1.3-17.1-1.1-1.6-2.4,10.2-1.2,12.4-3.2-.6-2.2-2.2-2.3-3.5-3.6,1.1-1.4,4.5-1.7,4-3.9s-4.3-1.4-6-.8-1.6,2.4-2.7,3.9-3.1,1-4.6.6-.2-2.4-1.1-3.2c-1.9-1.8-4.9.2-7.2-1.4,1.1-3.4,4.5-1.4,6.3-3.2,2.6-2.7,1.3-7.1-1-9.9,2.9-3.4,7.2-4.6,9.3-8,5.8-3.5,12.1-5.6,18.7-7.6l.4,1.7h0ZM51.6,81.4c0-.4-.3-.6-.6-.6s-.6.3-.6.6.3.6.6.6.6-.3.6-.6ZM50.1,93c-1.6-.9-4.9-1.4-5.8-.5s.4,1.2.4,2c1.5-.5,3.1-.4,5.4-1.5ZM60.9,121.9c-.5-2.1-4-1.4-4,0s4.3,1.4,4,0ZM58,132.5c-2.9-.9-4.6-1-6.1,0,2.4.7,4.3.7,6.1,0ZM59.1,138.9c0-.4-.3-.6-.6-.6s-.6.3-.6.6.3.6.6.6.6-.3.6-.6Z"/>
  <path class="st2" d="M62,77.8l-10.7,3.6c1.9,3,3.6.4,5.3,0,9.1-2.6,18.3-4.3,27.3-4.3-.5,1.7,1.2,1.9,2.7,1.8s2.1-.5,1.7-1.9h27c-.2,5.3,5.6,5.3,10,6.1,4.4.8,7.2,3.8,12.1,2.8-3.3,2-6.3,0-10.3,1,1.3,2,1.4,3.9-.3,6.4l3.7.6c1,.2,3.3,9.3,3.8,10.8-8.4,8.4-18.9,12.4-28.1,21.6-3.8.2-25.1-1.8-25.3.6-.8-.3-1.8,0-2.7,0s-3-.4-3.3,1h-1.7c-.5,0-1,0-1.5,0s-1.5.9-.8,1.7c-3.9,0-6.5,2.8-9,5.4s-3.5,6-2.7,9.7c-.5,1.3-1,2.8-1.3,4.1-3,.7-.3-6.8-3.1-6.3-1,3-2.7,6.2-2.8,9.2-3-.4-6,.7-8.9-.4,2.8-2,5.6,1.3,7.9-2-2.7-1.9-18.7,2.6-21.6-1.6,7.5-1.3,14.3-1.9,21.8-2.2-1.1-6.9-4.2-1.2-8.3-9.1,2.2-1.1,3.9-.2,5.6-1.6,1.4-1.3-17-2.4-9-5.1,7.9-2.7,3.3,2.2,6,2.3s0-1.4,7.9-2.4,1.1-1.6.7-2.9c-4.3,0-9,1-13.3-1,3.4-1.5,7,.3,10-1.2.7-.8-.6-3.1-1.4-3.7s-2.2-.4-3.4-.9c2.5-1.7,5.3.5,8-2.2-4.1-2.3-15.5,1.3-17.1-1.1-1.6-2.4,10.2-1.2,12.4-3.2-.6-2.2-2.2-2.3-3.5-3.6,1.1-1.4,4.5-1.7,4-3.9s-4.3-1.4-6-.8-1.6,2.4-2.7,3.9-3.1,1-4.6.6-.2-2.4-1.1-3.2c-1.9-1.8-4.9.2-7.2-1.4,1.1-3.4,4.5-1.4,6.3-3.2,2.6-2.7,1.3-7.1-1-9.9,2.9-3.4,7.2-4.6,9.3-8,5.8-3.5,12.1-5.6,18.7-7.6l.4,1.7h0ZM49.7,83.4c0-.4-.3-.6-.6-.6s-.6.3-.6.6.3.6.6.6.6-.3.6-.6ZM48.2,95c-1.6-.9-4.9-1.4-5.8-.5s.4,1.2.4,2c1.5-.5,3.1-.4,5.4-1.5ZM59,123.9c-.5-2.1-4-1.4-4,0s4.3,1.4,4,0ZM56.1,134.5c-2.9-.9-4.6-1-6.1,0,2.4.7,4.3.7,6.1,0ZM57.2,140.9c0-.4-.3-.6-.6-.6s-.6.3-.6.6.3.6.6.6.6-.3.6-.6Z"/>
  <path class="st3" d="M195.8,251.6l-20.6-13.8c-2-1.4-2.7-4.3-2.8-7l-4.6-86.8c-.2-3.2,1-5.2,3.5-6.7l29-17c.9-.5,2.3-.5,3-.3s1.2,1.6,1.1,3l-.4,16.1-4.7,110.8c0,1-.6,1.7-.9,1.9s-1.7.4-2.6-.2h0Z"/>
  <path class="st3" d="M186.8,133.2c.9,3.4,3.9,3.6,7.4,4.3s1.9,3.2,3.5,2.6l-1.1,31.7c-1,.1-.7,1.7-.7,2.5l-.2,17.6c-.9-.3-.9.9-1,1.6s.3,1.1.7,1.6c-1.5,5.3.5,11.5-.7,16.8s-1.4,8.1-.9,13.2-1.7,12.6,1.9,18.9c2-5.8.7-10.9,1-15.9-.8-5.2.6-10.3.9-16l4.2-88.8c-3.5,1.8-15.4,7.8-14.8,10h-.2,0Z"/>
  <path class="st3" d="M185.1,133.6c0-.3-.2-.5-.5-.5s-.5.2-.5.5.2.5.5.5.5-.2.5-.5Z"/>
  <path class="st3" d="M183.1,134.6c0-.3-.2-.5-.5-.5s-.5.2-.5.5.2.5.5.5.5-.2.5-.5Z"/>
  <path class="st3" d="M181.1,135.6c0-.3-.2-.5-.5-.5s-.5.2-.5.5.2.5.5.5.5-.2.5-.5Z"/>
  <path class="st3" d="M176.9,136.5c-1.5,1.6,0,1.6.7,1.6,1.5,0,1.8-.9,1.4-1.6s-1.3-.9-2.1,0h0Z"/>
  <path class="st3" d="M175.1,138.6c0-.3-.2-.5-.5-.5s-.5.2-.5.5.2.5.5.5.5-.2.5-.5Z"/>
  <path class="st3" d="M173.1,139.6c0-.3-.2-.5-.5-.5s-.5.2-.5.5.2.5.5.5.5-.2.5-.5Z"/>
  <path class="st3" d="M175.1,4.1c.4,4.8,9.3-1.4,15.9.5,4.2,3.3,10.4,4,13.9,8.9s6.3,12.4,7.1,19.2c.8,6.8,0,3.2,1.4,3.7-.1,4-1.5,6.3-4.3,10-5.9,7.7-14.4,13.5-24.2,12.7-19.9-1.6-27.1-18.7-25.2-37.5s-2.7-4-.3-5.7.4-2-.2-1.6c3.8-4.2,7.3-9.3,14-11s1.7,0,1.8.8c0,0,.1,0,.1,0Z"/>
  <path class="st3" d="M179.5,2c.4,4.8,9.3-1.4,15.9.5,4.2,3.3,10.4,4,13.9,8.9s6.3,12.4,7.1,19.2,0,3.2,1.4,3.7c-.1,4-1.5,6.3-4.3,10-5.9,7.7-14.4,13.5-24.2,12.7-19.9-1.6-27.1-18.7-25.2-37.5s-2.7-4-.3-5.7.4-2-.2-1.6c3.8-4.2,7.3-9.3,14-11s1.7,0,1.8.8c0,0,.1,0,.1,0Z"/>
  <path class="st3" d="M173.5,8.2c.4,4.8,9.3-1.4,15.9.5,4.2,3.3,10.4,4,13.9,8.9,3.5,4.9,6.3,12.4,7.1,19.2.8,6.8,0,3.2,1.4,3.7-.1,4-1.5,6.3-4.3,10-5.9,7.7-14.4,13.5-24.2,12.7-19.9-1.6-27.1-18.7-25.2-37.5s-2.7-4-.3-5.7.4-2-.2-1.6c3.8-4.2,7.3-9.3,14-11s1.7,0,1.8.8h.1Z"/>
  <path class="st2" d="M247.2,417.9c2.9,2.3-3.3,2.4-2.9,5.2,2.9,1.3,6.9-.9,9.2.8s-.3,5.5-2.7,6c1,1.4,2.3,1.1,3.5,2.5-2.1,1.7-4.4,1.8-6,3.5,2.6,1.8,5.9,1.5,7.7,3.4,1.8,1.9,0,3.8-.4,4.7-1,2.2-3.4-.3-11.6,5.2-.9.6-3.3-.1-3.8,1.5s1.8,2.3,1.6,3.5c-.4,2.6-4,1-5.9,2.8,3.8,1.8,7.7-.5,11.9.5.3,1.8-.2,3.7.3,5.4,2.2-.2,5.3-1.2,5.8.9s-2,1.4-2.1,1.9,1.2,1.2,2.5,1.4c7.8,4.5-8.8-.4-8.8,1.7,1.1,4.1,5,1.9,7,3.1,9.8,5.7,10.7-1.1,8.5,5.7l6.2.4c-.2.8.7,2,.2,2.9-.1,1.5-1.3,2.4-3.4,2.4.1,1.3,1.6.7,2,1.1.3.7.4,1.6-.2,2s-1,.7-1.9.7l-44,.6c-1.9.4-3.4,2.7-4.9,3.3-.8-.4-1.3-1-1.4-1.9,4.2-7.3.5-30,5.3-37.1v-15.7c12.5-4.4,18.4-12.5,28.2-18.5h0c0,.1,0,.1,0,.1Z"/>
  <path class="st2" d="M251.7,407.2c2.9,2.3-3.3,2.4-2.9,5.2,2.9,1.3,6.9-.9,9.2.8,2.3,1.7-.3,5.5-2.7,6,1,1.4,2.3,1.1,3.5,2.5-2.1,1.7-4.4,1.8-6,3.5,2.6,1.8,5.9,1.5,7.7,3.4s0,3.8-.4,4.7c-1,2.2-3.4-.3-11.6,5.2-.9.6-3.3-.1-3.8,1.5s1.8,2.3,1.6,3.5c-.4,2.6-4,1-5.9,2.8,3.8,1.8,7.7-.5,11.9.5.3,1.8-.2,3.7.3,5.4,2.2-.2,5.3-1.2,5.8.9s-2,1.4-2.1,1.9,1.2,1.2,2.5,1.4c7.8,4.5-8.8-.4-8.8,1.7,1.1,4.1,5,1.9,7,3.1,9.8,5.7,10.7-1.1,8.5,5.7l6.2.4c-.2.8.7,2,.2,2.9-.1,1.5-1.3,2.4-3.4,2.4.1,1.3,1.6.7,2,1.1.3.7.4,1.6-.2,2s-1,.7-1.9.7l-44,.6c-1.9.4-3.4,2.7-4.9,3.3-.8-.4-1.3-1-1.4-1.9,4.2-7.3.5-30,5.3-37.1v-15.7c12.5-4.4,18.4-12.5,28.2-18.5h0Z"/>
  <path class="st3" d="M192.8,393c-.2-3.8.8-7.6,1-12l2.6-57.9c0-1.7-.8-2.5-1.5-3.3.9,1.1-3.4-6.4-10.6-7.7,2.4,3.5,6.4,4.8,9,7.8l-3.1,60.2c-.3,5.4-1.5,10.1-.8,14.9,1.4-1.3,2.7-1,3.7-.8-3.4,5.8-10.1,9.7-18.1,12.1l-3.4-106.1,25.1,15c1.7,2,3.3,4,3.1,6.9l-1.9,38.4c-.2,3.4-1.1,6-.6,9.8s.4,28-4.7,22.8h.2Z"/>
  <path class="st2" d="M219,258.1c7.9,4.2,15.2,9.7,22.4,15.7,10.9,6.9,32.7,37.3,32.7,37.3h67.9s3-.6,4-1.1l2,.2c.9,1.2,2.4,1.8,3.9,2.1s.6,0,.9,0c0,1.5-.5,3.3-3,2.8h-74.8c-1.7.9-4.7.9-5.5-.6-14.4-25.8-32-37.8-55.6-54v-58.4c-.8-7.1,0-14.1-.8-21.1s.8-12.1.8-12.1v-51.9s.7-2.3,1.4-3c2.1,5.2-.2,11.1-.4,16.9v52.8c.3,4.7.3,8.6,0,13.3v35.9c-.2,2.9,2.2,6,1.4,8.7-1.8,6.4-.7,14.6,2.4,16.3l.3.2h0Z"/>
  <path class="st2" d="M56.9,148.1c-.9,3.2,1,10,1,10v.7c-2.2,3-.3,7.2-.9,11-1.6,10.3-.6,19.9-.4,30.1s-.8,14.8.2,22-.8,7.5,3.2,8.2l1,1.9c-.4.4-.7.8-.5,1.2.2.5.8,1.3,1.4,1.7l22.9,13c2,2,5,2.6,7.5,4.4s4,3.6,6.5,4.4c-1.8,1.7,18.4,13.6,19.9,14.1,2.9,1,4,.9,6,3.1,5.1,5.6,12.7,8.7,19,12.8,3.5,2.3,6.5,5.6,10.6,6.8,9.2,2.7,8.1,4.4,8.9,8.4-.9.7-1.4,1.8-1.7,2.6-.6,1.8,0,2.8,1.9,2.4,0,.6-.3,1.2-.3,1.9-1,.2-1.7.7-1.9,1.7-.2,1.3.8,1.5,1.8,1.8v.9c-.9,1.5-.5,3.2-.5,4.9h-1.6s-.6,1.2.4,1.3l-.3,8.8-2,2.2c-1.6-9.3-1.3-18.9-1.8-29.1-3.8-4.2-9.1-6.1-13.9-9.2l-44.4-28.6-39.5-25.4c-5.1-3.3-8.4-9.1-8.5-15.5-.5-24-.6-47.7.2-71.3s1.9-6.2,2.8-9.2c2.7-.5,0,7,3.1,6.3v-.3h0Z"/>
  <path class="st2" d="M52.3,148c-.9,3.2,1,10,1,10v.7c-2.2,3-.3,7.2-.9,11-1.6,10.3-.6,19.9-.4,30.1s-.8,14.8.2,22-.8,7.5,3.2,8.2l1,1.9c-.4.4-.7.8-.5,1.2.2.5.8,1.3,1.4,1.7l22.9,13c2,2,5,2.6,7.5,4.4s4,3.6,6.5,4.4c-1.8,1.7,18.4,13.6,19.9,14.1,2.9,1,4,.9,6,3.1,5.1,5.6,12.7,8.7,19,12.8,3.5,2.3,6.5,5.6,10.6,6.8,9.2,2.7,8.1,4.4,8.9,8.4-.9.7-1.4,1.8-1.7,2.6-.6,1.8,0,2.8,1.9,2.4,0,.6-.3,1.2-.3,1.9-1,.2-1.7.7-1.9,1.7-.2,1.3.8,1.5,1.8,1.8v.9c-.9,1.5-.5,3.2-.5,4.9h-1.6s-.6,1.2.4,1.3l-.3,8.8-2,2.2c-1.6-9.3-1.3-18.9-1.8-29.1-3.8-4.2-9.1-6.1-13.9-9.2l-44.4-28.6-39.5-25.4c-5.1-3.3-8.4-9.1-8.5-15.5-.5-24-.6-47.7.2-71.3s1.9-6.2,2.8-9.2c2.7-.5,0,7,3.1,6.3v-.3h0Z"/>
  <path class="st2" d="M5.7,258.9c10.3,5.2,19.4,11.9,30.7,18.7l15.4,9.3c4.3,2.6,7.8,5.7,12.4,7.9,4.6,2.2,10.3,7,15.7,10.3s30.9,18.3,32,22.7c0,1.1-1.2,11.2,1.6,9.4-.3,1.8-.3,3.7,0,5.5-.7-.6-1.4.3-1.7.8s0,1.1.5,1.5.8.6,1.3.2c0,1.3-.2,2.6-.7,3.8-1.4.2-1.1,1.3.2,1.1,0,.3,0,.6,0,.8-1.7-1.2-2,16.4.5,13.3,0,1,0,2.1-.2,3-2.2,13.8-.3,28.2-1.3,42.8s-.5,2.2-1.6,2.2-1,0-1.5-.2l-.3-79.9c0-2.7-2.2-4.5-4.4-6L1.8,260.7c1.3-.6,2.4-1.6,3.8-2v.2q0,0,0,0Z"/>
  <path class="st2" d="M324.1,125.1c1.6,1.9-2.3,4.9-1.7,6.5,1.9,4.8,0,8.9,0,13.3l-.9,29.8c-.3,9.8-.4,19.2-.1,29,2.9-1.4,2.8-3.9,4.8-4.6,6.4-1.1,13,0,20.1,0l23-.3c1.5,0,2.9.9,3.7,2.1.1.6.7,1.8,0,2.3s-1.8.8-3,.8l-51-.2-.2-72.8-44.1-.2c-2.1,0-3.7.2-5,.9-.7-.7-1.4-1.4-2.2-2.1,1.1-2.4,1.6-5.7,5.7-5.7h46.1s3.6.4,5,1h-.1v.2ZM324.2,139.2c0-.5-.4-.9-.9-.9s-.9.4-.9.9.4.9.9.9.9-.4.9-.9Z"/>
  <path class="st2" d="M166.1,74.5c-.5,4.2.9,9.4-.7,13.7-10.2,3.4-22.1,12.3-32.3,15.6-.4-1.6-2.8-10.6-3.8-10.8l-3.7-.6c1.7-2.5,1.6-4.4.3-6.4,4-.9,7,1,10.3-1-4.9,1-8.2-2.1-12.1-2.8s-10.2-.8-10-6.1h47.9c1.7,0,2.7-2.2,4.1-1.6h0Z"/>
  <path class="st2" d="M165.8,78.6c-.5,4.2.9,9.4-.7,13.7-10.2,3.4-22.1,12.3-32.3,15.6-.4-1.6-2.8-10.6-3.8-10.8l-3.7-.6c1.7-2.5,1.6-4.4.3-6.4,4-.9,7,1,10.3-1-4.9,1-8.2-2.1-12.1-2.8s-10.2-.8-10-6.1h47.9c1.7,0,2.7-2.2,4.1-1.6h0Z"/>
  <path class="st2" d="M5.9,258.9c-1.4.4-2.6,1.4-3.9,2-.7-.4-1.1-1.6-1.1-3l1-72.9v-18.1s2.8-54.7,24.4-72c1.3.3.4,2.2-.3,3.1l-6.9,10.1c-11.4,16.8-11.5,25.6-12.9,44.7l-1.3,7.1,1,98.8h0v.2Z"/>
  <path class="st3" d="M213.4,36.1c.2-6.2,1.3-13.4-2.4-19h1.9c6.9,12.4,5.6,25.5-3.5,37.6s-22.7,14.3-35.8,9.7-19.9-15-21-28.7c-.6-8.4,1.4-15.8,6.5-21.6.6-.4.6,1.3.2,1.6-2.3,1.7.5,4.3.3,5.7-2,18.8,5.3,35.9,25.2,37.5,9.8.8,18.3-5,24.2-12.7s4.2-6,4.3-10h.1Z"/>
  <path class="st2" d="M117.9,487.5c2.1.4,2.7,2.7,4.7,3.2-.3.4-.6,1.4-2,1.4H3.9c-1.4,0-2.6,0-3.3-.8s-.3-1.7-.3-2.5c2.1.6,4.2-.9,6.8-.8h100.6c3.9,0,7,0,10.2-.6h0Z"/>
  <path class="st2" d="M216.9,112.9c.4.6,1.1,1.1,1.9,1.4,1.8,10.4,0,32.8,0,32.8v24.9l-.4,73.1c0,4.3-.5,8.7,0,13-2.9-1.7-3.9-9.9-2.2-16.3,1.7-6.4-1.5-5.8-1.5-8.7v-102c.4-5.9,2.7-11.7.5-16.9l1.5-1.2h.2Z"/>
  <path class="st2" d="M165,92.9c-.9,1.4-1.9,2.3-3.7,3.3l-25.7,15.2c-8.6,5.1-16.7,10.3-24.3,16.9-7.6,6.6-6.1,4.3-10.4,4.1-7.3-.2-14.5,0-21.8.5-11.8.9-20.1,9.2-20.9,21.2s0,3.4-1.3,3.9c-1.9-2.8-1.1-6.8-.2-10s.8-2.8,1.3-4.1c1.1-3,5.7-4.8,2.7-9.7,2.5-2.6,5.1-5.3,9-5.4s1.5.2,2.2-.4.7-.7.2-1.3h1.7c.6.7,1.7,1.1,2.5.8s1.4-1.1.8-1.8c.8,0,1.9-.3,2.7,0,8.8,2.8,20.6-1.6,26.9,2.9,4.3-2.6,8.4-6.7,12.2-10.4s24.9-13.8,28.5-16.9,11-5.5,16.5-9.6c.6,0,1.3.2,1,.7h.1Z"/>
  <path class="st2" d="M271.1,382.1c-.3.6-1.1,1.3-1.1,2,0,3.1-3.2,6.5-2.2,9.6-1.5-.5-2.5.8-3.8,1.2-4.4,1.5-6.8,5.6-9.4,9.5s-4.3,2.8-3.6,5.2c-2.9,1.2-6.6,2.9-6.9,6.2-1.8,1.2-3.9,2.1-5,3.9-.7,0-1.4,0-2.2.4s-1.6.8-.9,1.6c-3.4.5-6.1,3-8.7,5.1s-1,0-1.5.3-1.2.9-.8,1.7c-2.4.8-4.6,2.1-6.9,3.2s-2.9,1-4,2.5c1.7.6,2.9.7,3.9,1.2s.8,0,1.9.2v15.7c-5.5,7-1.8,29.8-6,37.1-.8-.8-1.2-1.7-1-2.9v-54c3.7-2.6,7.1-4.3,10.8-6.4,18.4-10.7,33.4-25.5,44.2-43.8.6-1,1.8-1.4,2.6-1.1s.8.8.8,1.4l-.2.2h0Z"/>
  <path class="st2" d="M272.6,383.4c-.3.6-1.1,1.3-1.1,2,0,3.1-3.2,6.5-2.2,9.6-1.5-.5-2.5.8-3.8,1.2-4.4,1.5-6.8,5.6-9.4,9.5s-4.3,2.8-3.6,5.2c-2.9,1.2-6.6,2.9-6.9,6.2-1.8,1.2-3.9,2.1-5,3.9-.7,0-1.4,0-2.2.4s-1.6.8-.9,1.6c-3.4.5-6.1,3-8.7,5.1s-1,0-1.5.3-1.2.9-.8,1.7c-2.4.8-4.6,2.1-6.9,3.2s-2.9,1-4,2.5c1.7.6,2.9.7,3.9,1.2s.8,0,1.9.2v15.7c-5.5,7-1.8,29.8-6,37.1-.8-.8-1.2-1.7-1-2.9v-54c3.7-2.6,7.1-4.3,10.8-6.4,18.4-10.7,33.4-25.5,44.2-43.8.6-1,1.8-1.4,2.6-1.1s.8.8.8,1.4l-.2.2h0Z"/>
  <path class="st2" d="M2.9,350.1h45.4c3,.2,5.8,1.8,8.5,1,.3,10-.3,19.9-.8,29.8-.7.1-1.7.2-2,.7s0,1.2.6,1.4.8.2,1.4.3v1.7c-2.5,1.1-3-1.9-4-3.9v-3.7c0-.9,2.5-21.1.7-22.3-1.8-1.2-1.1,0-1.6,0l-41-.4c-4.1,0-7.1.6-10-2.7,0-.7-.2-1.7.5-2,.7-.3,1.7,0,2.4,0h0c0,0,0,.1,0,.1h-.1Z"/>
  <path class="st2" d="M2.9,348.6h45.4c3,.2,5.8,1.8,8.5,1,.3,10-.3,19.9-.8,29.8-.7.1-1.7.2-2,.7s0,1.2.6,1.4.8.2,1.4.3v1.7c-2.5,1.1-3-1.9-4-3.9v-3.7c0-.9,2.5-21.1.7-22.3-1.8-1.2-1.1,0-1.6,0l-41-.4c-4.1,0-7.1.6-10-2.7,0-.7-.2-1.7.5-2,.7-.3,1.7,0,2.4,0h0c0,0,0,.1,0,.1h-.1Z"/>
  <path class="st2" d="M164.8,92.8c.3-.5-.4-.8-1-.7-5.5,4.1-13.2,6.8-16.5,9.6s-25.4,13.9-28.5,16.9-7.9,7.8-12.2,10.4c-6.3-4.5-18.1,0-26.9-2.9.2-2.4,21.4-.5,25.2-.6,9.2-9.2,19.6-13.2,28-21.5,10.2-3.3,22-12.2,32.3-15.6,1.6-4.3.3-9.4.7-13.7-.2-.6.3-.8,1-.5v15.9c0,1.9-1.5,2-2,2.8h-.1Z"/>
  <path class="st2" d="M163.4,94c.3-.5-.4-.8-1-.7-5.5,4.1-13.2,6.8-16.5,9.6s-25.4,13.9-28.5,16.9-7.9,7.8-12.2,10.4c-6.3-4.5-18.1,0-26.9-2.9.2-2.4,21.4-.5,25.2-.6,9.2-9.2,19.6-13.2,28-21.5,10.2-3.3,22-12.2,32.3-15.6,1.6-4.3.3-9.4.7-13.7-.2-.6.3-.8,1-.5v15.9c0,1.9-1.5,2-2,2.8h-.1Z"/>
  <path class="st2" d="M272.9,448.1c.2,0-2-.2-2,.3l-.2,40.9c-2.2-.5-4.1-2.4-3.9-4.7.2-.6,1.8-1.1,1.9-1.9.2-1-.7-1.4-1.6-1.6.5-.9-.3-2.1-.2-3,1.4-7.6,1.1-15.6,1-23.8v-25.2l.5-1.9c.1,0,2.5-.2,2.5-.2l.4-38.1c0-1.9.5-4.1-1.2-4.8,0-.7.8-1.3,1-1.9,1.7.6,1.8,2.2,1.8,3.8v62h0Z"/>
  <path class="st2" d="M55.9,390.2l.5,2c0,1-.9,15.9.7,16-.2.2,0,.6,0,.8-1.2,0-.9,1.1,0,1v1c-1.4.9-1.4,4.1,0,5v1c0,.3-.6.7-.7,1.2-.7,3.1-2.1,16.8-.5,17.7s1.1-.1,1.5,0c2,.9,6.9,1.2,6.9,1.2l19.7.2c-2.1,3.6,6.7.3,7.8,2.8-2.6,1.3-27.5-1.7-23.8,2h-11.8c.6-.9-.4-1.5-.8-1.7-.8-.3-1.5-.2-2.3-.2-.2-.5-.7-1.5-.9-2,.8-.4.8-1.6.9-3l.2-47.4c2.3.4,2,2.1,2.8,2.5h-.2Z"/>
  <path class="st2" d="M54.3,388.2l.5,2c0,1-.9,15.9.7,16-.2.2,0,.6,0,.8-1.2,0-.9,1.1,0,1v1c-1.4.9-1.4,4.1,0,5v1c0,.3-.6.7-.7,1.2-.7,3.1-2.1,16.8-.5,17.7s1.1-.1,1.5,0c2,.9,6.9,1.2,6.9,1.2l19.7.2c-2.1,3.6,6.7.3,7.8,2.8-2.6,1.3-27.5-1.7-23.8,2h-11.8c.6-.9-.4-1.5-.8-1.7-.8-.3-1.5-.2-2.3-.2-.2-.5-.7-1.5-.9-2,.8-.4.8-1.6.9-3l.2-47.4c2.3.4,2,2.1,2.8,2.5h-.2Z"/>
  <path class="st2" d="M270.9,488.3c.3,0,.6-.2.9-.2,0,1.5-.1,3-1.8,3l-52.9.5c-1,0-1.6-.8-2-1,1.4-.6,2.9-3,4.9-3.6l44-.6c.9,0,1.4-.4,1.9-.8s.5-1.4.2-2.2l1.1-.2c-.2,2.5,1.7,4.3,3.8,4.9h-.1v.2Z"/>
  <path class="st3" d="M194.9,319.7c.7.8,1.6,1.6,1.5,3.3l-2.6,57.9c-.2,4.4-1.2,8.2-1,12s.3.8.4,1.2c-1.1-.2-2.4-.5-3.7.8-.8-4.8.5-9.5.8-14.9l3.1-60.2,1.6-.2h-.1Z"/>
  <path class="st3" d="M191.8,319.7c.7.8,1.6,1.6,1.5,3.3l-2.6,57.9c-.2,4.4-1.2,8.2-1,12s.3.8.4,1.2c-1.1-.2-2.4-.5-3.7.8-.8-4.8.5-9.5.8-14.9l3.1-60.2,1.6-.2h-.1Z"/>
  <path class="st3" d="M192.8,316.6c.7.8,1.6,1.6,1.5,3.3l-2.6,57.9c-.2,4.4-1.2,8.2-1,12s.3.8.4,1.2c-1.1-.2-2.4-.5-3.7.8-.8-4.8.5-9.5.8-14.9l3.1-60.2,1.6-.2h-.1Z"/>
  <path class="st2" d="M58,222.1h-2c-1-7.3,0-14.5-.2-22.1s-1.1-19.8.4-30.1-1.2-7.9.9-11c1.3,1,1.2,3,1.1,5-.4,9.9-.9,51.2-.2,58.2h0Z"/>
  <path class="st3" d="M196.9,3.8c-3,.8,8.2,4.8,13.6,13.2,3.7,5.6,2.6,12.8,2.4,19-1.4-.5-1.2-2-1.4-3.7-.8-6.7-3.1-13.6-7.1-19.2s-9.6-5.6-13.9-8.9-2.6-3.3-6.1-2.7l-7.8,1.4c3-7.1,20.9,1,20.3.8h0Z"/>
  <path class="st4" d="M252.9,87.1c-4.4,6.6-10.6,12.8-17.7,16.2-.1,0-.3-1.1-.7-1.1s-.8.8-1.1.9c-.8.5,0,1.2.7,1.2-.3,1.4-1.2,2.4-3.7,3.1-.4-.8.2-1.7,0-2.4-4.4,1.4-13,5.9-11.8,9.3-.8-.3-1.5-.7-2.1-1.4,6.3-5.6,13.6-10.1,20.4-15.7,3.9-3.2,6.8-7.2,10.8-9.5,1.5-.3,3.6,0,5-.7h.2Z"/>
  <path class="st4" d="M234.3,104.3c.1-.7.1-1.5,1-1,.9.8-.2,1.7-1,1Z"/>
  <path class="st2" d="M97.9,442.1c-.2-.7.4-3-1.2-3s-1,2.3-1.2,3h-28.1c-4.1-4,23.5-.7,26.5-2.1-1.2-2.6-10.8.7-8.6-2.9h14.5c2.1,0,4-.7,5.1-2h1.1c.7,1.5,2.7,2.2,2.4,3.4-1,4-6.5,3.5-10.3,3.5h-.2Z"/>
  <path class="st2" d="M88.3,443.1c-.2-.7.4-3-1.2-3s-1,2.3-1.2,3h-28.1c-4.1-4,23.5-.7,26.5-2.1-1.2-2.6-10.8.7-8.6-2.9h14.5c2.1,0,4-.7,5.1-2h1.1c.7,1.5,2.7,2.2,2.4,3.4-1,4-6.5,3.5-10.3,3.5h-.2Z"/>
  <path class="st2" d="M82.2,442.3c-.2-.7.4-3-1.2-3s-1,2.3-1.2,3h-28.1c-4.1-4,23.5-.7,26.5-2.1-1.2-2.6-10.8.7-8.6-2.9h14.5c2.1,0,4-.7,5.1-2h1.1c.7,1.5,2.7,2.2,2.4,3.4-1,4-6.5,3.5-10.3,3.5h-.2Z"/>
  <path class="st2" d="M270.9,131.9v92.1c-3.6-2-.7-6.8-1.3-10-1.1-5.4-.1-10-.2-15.2-.1-8.1-1-15.9,0-24.2s0-23.7.5-35.7c.1-3.7-2.4-6.1-1-9.1.7.6,1.4,1.3,2.1,2h-.1Z"/>
  <path class="st2" d="M124.8,452.1c-.9,4.1-7.7,29-1.2,29.9,0,2.5,2.3,7-1,8.2-2-.6-2.6-3-4.7-3.4v-13.7c0-7.8,2-14.8,5.9-21,0,0,1,0,1,0Z"/>
  <path class="st2" d="M124.6,453c-.9,4.1-7.7,29-1.2,29.9,0,2.5,2.3,7-1,8.2-2-.6-2.6-3-4.7-3.4v-13.7c0-7.8,2-14.8,5.9-21,0,0,1,0,1,0Z"/>
  <path class="st2" d="M373.9,200.8l.4-123.6c0-.9.5-1.3,1-1.2-.9,42.3,1.7,85-1.3,124.7h-.1Z"/>
  <path class="st2" d="M370.7,77.7c-.5,0-1.2,1.2-1.2,1.2l-.4,124.2h-.8c-.7-1.2-2.1-2.3-3.7-2.2,0-5.6.7-11.1-.7-17.5-2.6,1.9-4,4.9-6.2,3.2s0-4-1.8-3.9l-14.6,1.1c-1.7.1-1.8-2.3-2.5-3.2l-10.6-.7c-2.5-.2-4.5-2.5-6.8-1.6l-.2-48.3c0-1.5-.9-2.7-1.8-3-1.4-.6-3-.9-5-.9l-44.5.3c-3.8,0-4.4,3.3-5.5,5.5s1.2,5.4,1,9.1c-.5,12,1,24-.5,35.7-1,8.3,0,16.2,0,24.2s-.9,9.8.2,15.2-2.3,8,1.3,10v2c-1.8,1.9-1.8,6.1,0,8v22c-1.1,1-1.3,2.5-1.3,3.9-.5.8-.8,1.7-.8,2.7-2.5-1.4-4.1-5.7-3.7-8.7.8-5.1.9-10.4.8-16.1v-63.3s-5.5-5.6-8.5-6.4c1-2.4,3.1-1.2,4.6-2.4-10.3-3.8-5.7,4-12.3,2.1s-2.4.3-3-.5,1.2-2,1-2.7c-.4-1.1-3.7-1.7-4.7-1.1.5,1.8-9.1,7-10.8,6.7-.8.5-.3,3.2-1.1,3.6-3.4,1.6-6.5-2.5-12.2-2v-25c.4-11.3,1.5-22.4-.3-32.8-1.2-3.4,7.4-7.9,11.8-9.3.2.7-.4,1.7,0,2.4,2.5-.7,3.4-1.7,3.7-3.2.8.7,1.8-.2,1-1,7.1-3.4,13.3-9.7,17.7-16.2s4.6-7.5,8-10.7l82,1,25.8-.3c1.3,0,2.7,1.1,3-.6s1.1-2.1-.7-2.1l-104.1-1h103.9c2.5-.5,4.2.9,4.1,2.8l.3-.2h.1ZM224.7,110.3c0-.3-.2-.5-.5-.5s-.5.2-.5.5.2.5.5.5.5-.2.5-.5ZM221.4,113.1c1.2-.3,1.6-1,1.3-1.8s-1-.7-1.5-.5-.7.8-1.6,1.5c-1.8,1.6-.1,2,1.8.8Z"/>
  <path class="st2" d="M375.6,77.7c-.5,0-1.2,1.2-1.2,1.2l-.4,124.2h-.8c-.7-1.2-2.1-2.3-3.7-2.2,0-5.6.7-11.1-.7-17.5-2.6,1.9-4,4.9-6.2,3.2s0-4-1.8-3.9l-14.6,1.1c-1.7.1-1.8-2.3-2.5-3.2l-10.6-.7c-2.5-.2-4.5-2.5-6.8-1.6l-.2-48.3c0-1.5-.9-2.7-1.8-3-1.4-.6-3-.9-5-.9l-44.5.3c-3.8,0-4.4,3.3-5.5,5.5s1.2,5.4,1,9.1c-.5,12,1,24-.5,35.7-1,8.3,0,16.2,0,24.2s-.9,9.8.2,15.2-2.3,8,1.3,10v2c-1.8,1.9-1.8,6.1,0,8v22c-1.1,1-1.3,2.5-1.3,3.9-.5.8-.8,1.7-.8,2.7-2.5-1.4-4.1-5.7-3.7-8.7.8-5.1.9-10.4.8-16.1v-63.3s-5.5-5.6-8.5-6.4c1-2.4,3.1-1.2,4.6-2.4-10.3-3.8-5.7,4-12.3,2.1s-2.4.3-3-.5,1.2-2,1-2.7c-.4-1.1-3.7-1.7-4.7-1.1.5,1.8-9.1,7-10.8,6.7-.8.5-.3,3.2-1.1,3.6-3.4,1.6-6.5-2.5-12.2-2v-25c.4-11.3,1.5-22.4-.3-32.8-1.2-3.4,7.4-7.9,11.8-9.3.2.7-.4,1.7,0,2.4,2.5-.7,3.4-1.7,3.7-3.2.8.7,1.8-.2,1-1,7.1-3.4,13.3-9.7,17.7-16.2s4.6-7.5,8-10.7l82,1,25.8-.3c1.3,0,2.7,1.1,3-.6s1.1-2.1-.7-2.1l-104.1-1h103.9c2.5-.5,4.2.9,4.1,2.8l.3-.2h.1ZM229.6,110.3c0-.3-.2-.5-.5-.5s-.5.2-.5.5.2.5.5.5.5-.2.5-.5ZM226.3,113.1c1.2-.3,1.6-1,1.3-1.8s-1-.7-1.5-.5-.7.8-1.6,1.5c-1.8,1.6-.1,2,1.8.8Z"/>
  <path class="st0" d="M235.2,103.1c-.8-.5-.9.3-1,1-.8,0-1.5-.7-.7-1.2s.7-1,1.1-.9.5,1.1.7,1.1h-.1Z"/>
  <path class="st2" d="M89.9,435.1h0l-2,2-24-.2c-2.6,0-4.9,0-6.9-.8v-11.9c0-.7.4-1.2.9-1,2.5,3.8-.7,9.4,2.4,11.2s26.3.8,29.7.8h0Z"/>
  <path class="st2" d="M164.1,363.1h-2c0-8.8-.8-17.7-.2-27s-1.2-5.6-1.1-8.3l.3-8.8c.4,0,1-.5,1-1,0-1.6-.3-3.4.5-4.9l.8,22.9c.3,9.3.4,18.2.6,27h0Z"/>
  <path class="st2" d="M58.9,392.1c-.9.1-1.8.1-2.7,0l-.2-2v-6.9c.9.2.9-.9.9-1.7s0-1-.8-.7c.6-9.9,1.2-19.9.9-29.8s.6-.9,1-1c2.2,13.7.8,28,1,42.1h-.1Z"/>
  <path class="st2" d="M349.9,259.1v1.8c-1.9.5-3.8-.8-6.1-.8h-74.2c0-1.5.3-2.7,1.3-3.7,0,.6,0,1.4.4,1.8s1.3.9,2.6.9h76Z"/>
  <path class="st2" d="M58.1,350c-.4,0-1,.5-1,1-2.9.8-5.9-.8-9.1-.9H3.1c0-.3.4-1.4,1.1-1.3,18.3,1.1,36.4-1.3,53.9,1.2h0Z"/>
  <path class="st2" d="M58.4,348.5c-.4,0-1,.5-1,1-2.9.8-5.9-.8-9.1-.9H3.4c0-.3.4-1.4,1.1-1.3,18.3,1.1,36.4-1.3,53.9,1.2h0Z"/>
  <path class="st3" d="M251.3,40.1h-1.5c-1.6-1.7-4.2-12-7.6-11-3.1-7.1-4.3-4.6-4-9.5,7,4.9,10.7,12.8,13,20.6h.1Z"/>
  <path class="st2" d="M261,77.1c-3.4,2.8-5.6,6.6-8,10.2-1.5.8-3.6.4-5,.7l8-11.9c.8-1.2,2.1-2.8,3.5-2.2s1.4,2,1.4,3.2c0,0,.1,0,.1,0Z"/>
  <path class="st4" d="M117.9,270.9c-1.5-.5-21.8-12.4-20-14.1,6.4,2.2,11.2,7.5,17.6,10.6,1.6.7,2.5,2.1,2.4,3.4h0Z"/>
  <path class="st2" d="M352.9,312.1h-1l1-48v-2h0v50h0Z"/>
  <path class="st1" d="M212.9,17.1h-1.9c-5.5-8.2-16.7-12.3-13.6-13.1,6.8,2.1,12,6.5,15.6,13.1h-.1Z"/>
  <path class="st2" d="M59.1,392.1c0,5.4,1.4,11.7-2,16-1.5-.1-.6-14.9-.7-16h2.7Z"/>
  <path class="st2" d="M273.1,448.1c0,2.8-.8,4.7-1.2,7.1v33.3c-.3,0-.6.2-1,.2v-40.3c.3-.5,2.3-.3,2.2-.3h0Z"/>
  <path class="st2" d="M56.8,418.1c2,.9.2,3.8,1,5-.5-.2-.9.3-.9,1v11.9c-.4-.2-1.1.2-1.5,0-1.5-1-.2-14.6.5-17.7l.9-.2h0Z"/>
  <path class="st1" d="M191,4.3c-6.6-1.9-15.5,4.3-15.9-.5.6-.3,1.3-.7,2-.8l7.8-1.4c3.5-.6,4.4,1.4,6.1,2.7h0Z"/>
  <path class="st2" d="M84.1,248.1l-23-13c-.6-.4-1.2-1.1-1.4-1.7s0-.8.5-1.2c2,.3,3.5,2.1,5.3,3.6,6,5,13.4,7.1,18.6,12.3h0Z"/>
  <path class="st2" d="M105.7,435.1c-1.2,1.4-3.2,2-5.4,2h-10.4v-2h15.8Z"/>
  <path class="st4" d="M153.6,293.7c-4.2-1.2-7.2-4.5-10.7-6.8v-.9c1,0,12.5,6.2,10.7,7.7h0Z"/>
  <path class="st2" d="M61.1,77.1l-.4-1.7c4.7-1.4,9.6-2.3,14.5-.8-5.4.2-9.7,1-14.1,2.5Z"/>
  <path class="st2" d="M164.1,363.1c0,3,.2,6,0,9h-1c-1.8-2.5-1-6-1-9h2Z"/>
  <path class="st2" d="M58,222.2c.3,2.7.5,5.4,1.1,8.1-3.9-.8-2.7-5.2-3.2-8.2h2.1Z"/>
  <path class="st4" d="M142.9,286v.9c-6.3-4.2-14.1-7.3-19.2-12.8,6.8,3,13.5,7.1,19.2,12h0Z"/>
  <path class="st2" d="M57.1,416.1c-1.6-.9-1.6-4.1,0-5,1.5,1.3,1.5,3.7,0,5Z"/>
  <path class="st4" d="M163.1,307.1c-1.8.4-2.5-.6-1.9-2.4s.8-2,1.7-2.6c.4,1.6,0,3.4.2,5Z"/>
  <path class="st2" d="M86.9,76c.5,1.4-.7,1.8-1.7,1.9-1.5,0-3.2,0-2.7-1.8h4.4,0Z"/>
  <path class="st2" d="M270.9,234.1c-1.7-1.9-1.8-6.1,0-8v8Z"/>
  <path class="st4" d="M162.9,308.9v3.4c-1-.3-2-.5-1.8-1.8s.9-1.5,1.9-1.7h0Z"/>
  <path class="st2" d="M352.9,262.1h-1c-.7-.1-1.4-.5-2-1v-2c1.2,0,2.6,2.1,3,3Z"/>
  <path class="st2" d="M57,410.1c-1.1,0-1.4-1.1,0-1v1h0Z"/>
  <path class="st2" d="M56.9,418.1l-.9.2c0-.5.6-.8.9-1.2v1Z"/>
  <path class="st3" d="M234.8,291.1l-.7,1.1c-5.8-2.1-9.3-7-14-10.1l-30.2-19.9c-16.6-10.9-39.9-24.8-50.5-41.1h.8c6.7,5.4,12.2,12.1,19,16.9l17.1,12,27.9,18.1,14.4,9.6c6,4,11.7,8.3,16.3,13.3h-.1Z"/>
  <path class="st3" d="M237.3,292.5l-.7,1.1c-5.8-2.1-9.3-7-14-10.1l-30.2-19.9c-16.6-10.9-39.9-24.8-50.5-41.1h.8c6.7,5.4,12.2,12.1,19,16.9l17.1,12,27.9,18.1,14.4,9.6c6,4,11.7,8.3,16.3,13.3h-.1Z"/>
  <path class="st3" d="M237.3,293.5l-.7,1.1c-5.8-2.1-9.3-7-14-10.1l-30.2-19.9c-16.6-10.9-39.9-24.8-50.5-41.1h.8c6.7,5.4,12.2,12.1,19,16.9l17.1,12,27.9,18.1,14.4,9.6c6,4,11.7,8.3,16.3,13.3h-.1Z"/>
  <path class="st3" d="M190.3,515.6c-5.1-2.8-2.4-20.6-2.4-17.5l.6-46-3.5-2.4c1.8-.9,3-1.4,3.7-3.5.5,1.1,1.7,1.3,3.4,1.4l-1,19.5c-.4,8.1-1.1,15.8-1,24s1.1,15.8.2,24.5Z"/>
  <path class="st3" d="M192.2,515.6c-5.1-2.8-2.4-20.6-2.4-17.5l.6-46-3.5-2.4c1.8-.9,3-1.4,3.7-3.5.5,1.1,1.7,1.3,3.4,1.4l-1,19.5c-.4,8.1-1.1,15.8-1,24s1.1,15.8.2,24.5Z"/>
  <path class="st3" d="M190.9,517.3c-5.1-2.8-2.4-20.6-2.4-17.5l.6-46-3.5-2.4c1.8-.9,3-1.4,3.7-3.5.5,1.1,1.7,1.3,3.4,1.4l-1,19.5c-.4,8.1-1.1,15.8-1,24s1.1,15.8.2,24.5Z"/>
  <path class="st3" d="M191.2,513c-5.1-2.8-2.4-20.6-2.4-17.5l.6-46-3.5-2.4c1.8-.9,3-1.4,3.7-3.5.5,1.1,1.7,1.3,3.4,1.4l-1,19.5c-.4,8.1-1.1,15.8-1,24s1.1,15.8.2,24.5Z"/>
  <path class="st3" d="M152.9,486c8.1,14.5,4.8,11.9,17.2,23.8,5.8,5.5,11.4,10.6,17.9,15.2s9.1,7.7,10.1,9.9c-5.8-1.3-8.7-6.7-13.3-9.7s-8.8-7-13-11l-9.2-8.8c-5.6-5.3-8.6-12.6-11.4-19.3h1.7Z"/>
  <path class="st3" d="M152.9,481.7c8.1,14.5,4.8,11.9,17.2,23.8,5.8,5.5,11.4,10.6,17.9,15.2s9.1,7.7,10.1,9.9c-5.8-1.3-8.7-6.7-13.3-9.7s-8.8-7-13-11l-9.2-8.8c-5.6-5.3-8.6-12.6-11.4-19.3h1.7Z"/>
  <path class="st3" d="M150.4,482c8.1,14.5,4.8,11.9,17.2,23.8,5.8,5.5,11.4,10.6,17.9,15.2s9.1,7.7,10.1,9.9c-5.8-1.3-8.7-6.7-13.3-9.7s-8.8-7-13-11l-9.2-8.8c-5.6-5.3-8.6-12.6-11.4-19.3h1.7Z"/>
  <path class="st3" d="M150.4,479.9c8.1,14.5,4.8,11.9,17.2,23.8,5.8,5.5,11.4,10.6,17.9,15.2s9.1,7.7,10.1,9.9c-5.8-1.3-8.7-6.7-13.3-9.7s-8.8-7-13-11l-9.2-8.8c-5.6-5.3-8.6-12.6-11.4-19.3h1.7Z"/>
  <path class="st3" d="M264.4,331.8c.6,2.2.5,4.6,1.9,6.5.3,5.1.2,10.7,0,15.9l-2-4c.8-18-6.8-35.3-19.4-48.6s-2.7-3.3-.6-4.7c10.4,9.7,16.5,22,20,35h.1Z"/>
  <path class="st3" d="M262.1,331.7c.6,2.2.5,4.6,1.9,6.5.3,5.1.2,10.7,0,15.9l-2-4c.8-18-6.8-35.3-19.4-48.6s-2.7-3.3-.6-4.7c10.4,9.7,16.5,22,20,35h.1Z"/>
  <path class="st3" d="M263.5,331.7c.6,2.2.5,4.6,1.9,6.5.3,5.1.2,10.7,0,15.9l-2-4c.8-18-6.8-35.3-19.4-48.6s-2.7-3.3-.6-4.7c10.4,9.7,16.5,22,20,35h.1Z"/>
  <path class="st3" d="M261.1,353c.6,2.2.5,4.6,1.9,6.5.3,5.1.2,10.7,0,15.9l-2-4c.8-18-6.8-35.3-19.4-48.6s-2.7-3.3-.6-4.7c10.4,9.7,16.5,22,20,35h.1Z"/>
  <path class="st3" d="M249.8,39.9c0,11.2,1.6,16.7-5.7,26.2,2.3-8.6,4.5-17.6,1.9-26.2s-2.1-7.4-3.7-11.1c3.4-.9,6,9.4,7.6,11,0,0,0,0,0,0h-.1Z"/>
  <path class="st3" d="M245.9,33.4c0,11.2,1.6,16.7-5.7,26.2,2.3-8.6,4.5-17.6,1.9-26.2s-2.1-7.4-3.7-11.1c3.4-.9,6,9.4,7.6,11h-.1Z"/>
  <path class="st3" d="M173.3,426.1l-15.3,11.3c-1.4,1-2.2,4.3-4.6,1.9,8.2-6.7,15.6-13.2,23.8-18.8s11.4-7,17.2-11.9c-.5,5.2-5.8,4.7-7.6,8.4-5.3,1.7-8.8,5.7-13.4,9.1h0Z"/>
  <path class="st3" d="M172.2,426.1l-15.3,11.3c-1.4,1-2.2,4.3-4.6,1.9,8.2-6.7,15.6-13.2,23.8-18.8s11.4-7,17.2-11.9c-.5,5.2-5.8,4.7-7.6,8.4-5.3,1.7-8.8,5.7-13.4,9.1h0Z"/>
  <path class="st3" d="M175.8,423.1l-15.3,11.3c-1.4,1-2.2,4.3-4.6,1.9,8.2-6.7,15.6-13.2,23.8-18.8s11.4-7,17.2-11.9c-.5,5.2-5.8,4.7-7.6,8.4-5.3,1.7-8.8,5.7-13.4,9.1h0Z"/>
  <path class="st3" d="M167.5,431.6l-15.3,11.3c-1.4,1-2.2,4.3-4.6,1.9,8.2-6.7,15.6-13.2,23.8-18.8s11.4-7,17.2-11.9c-.5,5.2-5.8,4.7-7.6,8.4-5.3,1.7-8.8,5.7-13.4,9.1h0Z"/>
  <path class="st3" d="M140.2,221.1h-.8c-2.2-3.5-4.8-6.1-6.7-9.6-5.2-9.4-7.6-19-6.6-29.4h1c.7,21.2,5.2,22.9,13.1,39Z"/>
  <path class="st3" d="M134.2,210.7h-.8c-2.2-3.5-4.8-6.1-6.7-9.6-5.2-9.4-7.6-19-6.6-29.4h1c.7,21.2,5.2,22.9,13.1,39Z"/>
  <path class="st3" d="M145.7,232.6h-.8c-2.2-3.5-4.8-6.1-6.7-9.6-5.2-9.4-7.6-19-6.6-29.4h1c.7,21.2,5.2,22.9,13.1,39h0Z"/>
  <path class="st3" d="M142.4,227.2h-.8c-2.2-3.5-4.8-6.1-6.7-9.6-5.2-9.4-7.6-19-6.6-29.4h1c.7,21.2,5.2,22.9,13.1,39h0Z"/>
  <path class="st3" d="M127.1,182.1h-1c.2-9.4,3.1-17.9,8.4-25-.4,5.1-3.6,8.7-4.7,13.5s-1.6,8.2-2.7,11.5Z"/>
  <path class="st3" d="M123.7,190.5h-1c.2-9.4,3.1-17.9,8.4-25-.4,5.1-3.6,8.7-4.7,13.5s-1.6,8.2-2.7,11.5Z"/>
  <path class="st3" d="M122.9,188.1h-1c.2-9.4,3.1-17.9,8.4-25-.4,5.1-3.6,8.7-4.7,13.5s-1.6,8.2-2.7,11.5Z"/>
  <path class="st3" d="M125.6,176.4l-1-.3c2.9-8.9,8.1-16.3,15.2-21.5-1.8,4.8-5.9,7.3-8.4,11.6-2.4,4.3-3.9,7.4-5.9,10.2h0Z"/>
  <path class="st3" d="M127.9,169.8l-1-.3c2.9-8.9,8.1-16.3,15.2-21.5-1.8,4.8-5.9,7.3-8.4,11.6-2.4,4.3-3.9,7.4-5.9,10.2h0Z"/>
  <path class="st3" d="M264.1,354.2c-.3,10.5-6,19.5-6,16.1,0-6.9,3.4-7.4,4-20.1l2,4Z"/>
  <path class="st3" d="M266.2,351.4c-.3,10.5-6,19.5-6,16.1,0-6.9,3.4-7.4,4-20.1l2,4Z"/>
  <path class="st3" d="M262.6,358.7c-.3,10.5-6,19.5-6,16.1,0-6.9,3.4-7.4,4-20.1l2,4Z"/>
  <path class="st3" d="M262.6,361.2c-.3,10.5-6,19.5-6,16.1,0-6.9,3.4-7.4,4-20.1l2,4Z"/>
  <path class="st3" d="M151.9,131c.9.9,1.3,3.3,3.1,2.2-2.4,2.5-4.5,5.8-8.3,7.4.2-3,4.2-4.1,1.8-6.2s-2.1-.4-2.6-.6-.9-1.8.3-2.7,4,.2,5.7,0h0Z"/>
  <path class="st3" d="M151.5,132.4c.9.9,1.3,3.3,3.1,2.2-2.4,2.5-4.5,5.8-8.3,7.4.2-3,4.2-4.1,1.8-6.2s-2.1-.4-2.6-.6-.9-1.8.3-2.7,4,.2,5.7,0h0Z"/>
  <path class="st3" d="M151.9,125c.9.9,1.3,3.3,3.1,2.2-2.4,2.5-4.5,5.8-8.3,7.4.2-3,4.2-4.1,1.8-6.2s-2.1-.4-2.6-.6-.9-1.8.3-2.7,4,.2,5.7,0h0Z"/>
  <path class="st3" d="M134.8,127.5c.9.9,1.3,3.3,3.1,2.2-2.4,2.5-4.5,5.8-8.3,7.4.2-3,4.2-4.1,1.8-6.2s-2.1-.4-2.6-.6-.9-1.8.3-2.7c1.2-.9,4,.2,5.7,0h0Z"/>
  <path class="st3" d="M137.1,125.2c.9.9,1.3,3.3,3.1,2.2-2.4,2.5-4.5,5.8-8.3,7.4.2-3,4.2-4.1,1.8-6.2s-2.1-.4-2.6-.6-.9-1.8.3-2.7,4,.2,5.7,0h0Z"/>
  <path class="st3" d="M246,39.9c2.7,8.6.4,17.5-1.9,26.2-2.3,8.7-20.6,23.5-31,29.8l-34.3,20.7c-8.4,5.1-15.4,11.7-23.6,16.5.7-.4,0-2-.6-2.1s-1.7-.2-2.5-.1c-1.1-1.1-1.9-2.6-2.9-3.9-.8.5-1.6,1.5-2,1.9-2.2,2.3-2.4-3.5-4-4.8,1.2-2.3,4-3.2,5.9-4.7-7.7.8-12.4,7.6-18,8.2,4-2.7,7-4.8,10.2-7.3s7.2-3.5,10.6-5.8c22.2-14.8,44.3-24.1,66.3-40.6,1.3,0,1,2.6.4,3.7,5.3-3.1,9.1-7.6,13.2-12.3l-12,8.8c3-5.3,7.7-8.6,11.7-13l3.6,1.9c4.8-6.9,7.6-14.6,9.6-22.6s1.2-.6,1.3-.5h0ZM217,78.5c-3.2,1.3-6.5,3.4-9.9,6.3,3.1-1.6,6.7-2.3,9.9-6.3Z"/>
  <path class="st3" d="M244,43c2.7,8.6.4,17.5-1.9,26.2s-20.6,23.5-31,29.8l-34.3,20.7c-8.4,5.1-15.4,11.7-23.6,16.5.7-.4,0-2-.6-2.1s-1.7-.2-2.5-.1c-1.1-1.1-1.9-2.6-2.9-3.9-.8.5-1.6,1.5-2,1.9-2.2,2.3-2.4-3.5-4-4.8,1.2-2.3,4-3.2,5.9-4.7-7.7.8-12.4,7.6-18,8.2,4-2.7,7-4.8,10.2-7.3s7.2-3.5,10.6-5.8c22.2-14.8,44.3-24.1,66.3-40.6,1.3,0,1,2.6.4,3.7,5.3-3.1,9.1-7.6,13.2-12.3l-12,8.8c3-5.3,7.7-8.6,11.7-13l3.6,1.9c4.8-6.9,7.6-14.6,9.6-22.6s1.2-.6,1.3-.5h0ZM215,81.6c-3.2,1.3-6.5,3.4-9.9,6.3,3.1-1.6,6.7-2.3,9.9-6.3Z"/>
  <path class="st3" d="M249.8,42c2.7,8.6.4,17.5-1.9,26.2s-20.6,23.5-31,29.8l-34.3,20.7c-8.4,5.1-15.4,11.7-23.6,16.5.7-.4,0-2-.6-2.1s-1.7-.2-2.5-.1c-1.1-1.1-1.9-2.6-2.9-3.9-.8.5-1.6,1.5-2,1.9-2.2,2.3-2.4-3.5-4-4.8,1.2-2.3,4-3.2,5.9-4.7-7.7.8-12.4,7.6-18,8.2,4-2.7,7-4.8,10.2-7.3s7.2-3.5,10.6-5.8c22.2-14.8,44.3-24.1,66.3-40.6,1.3,0,1,2.6.4,3.7,5.3-3.1,9.1-7.6,13.2-12.3l-12,8.8c3-5.3,7.7-8.6,11.7-13l3.6,1.9c4.8-6.9,7.6-14.6,9.6-22.6s1.2-.6,1.3-.5h0ZM220.8,80.6c-3.2,1.3-6.5,3.4-9.9,6.3,3.1-1.6,6.7-2.3,9.9-6.3Z"/>
  <path class="st3" d="M239.5,44.1c2.7,8.6.4,17.5-1.9,26.2-2.3,8.7-20.6,23.5-31,29.8l-34.3,20.7c-8.4,5.1-15.4,11.7-23.6,16.5.7-.4,0-2-.6-2.1s-1.7-.2-2.5-.1c-1.1-1.1-1.9-2.6-2.9-3.9-.8.5-1.6,1.5-2,1.9-2.2,2.3-2.4-3.5-4-4.8,1.2-2.3,4-3.2,5.9-4.7-7.7.8-12.4,7.6-18,8.2,4-2.7,7-4.8,10.2-7.3s7.2-3.5,10.6-5.8c22.2-14.8,44.3-24.1,66.3-40.6,1.3,0,1,2.6.4,3.7,5.3-3.1,9.1-7.6,13.2-12.3l-12,8.8c3-5.3,7.7-8.6,11.7-13l3.6,1.9c4.8-6.9,7.6-14.6,9.6-22.6s1.2-.6,1.3-.5h0ZM210.5,82.7c-3.2,1.3-6.5,3.4-9.9,6.3,3.1-1.6,6.7-2.3,9.9-6.3Z"/>
  <path class="st3" d="M153,486.1h-1.7c-1.7-4.6-1.7-9.2-.7-14.1,1,4.8,2.1,9.4,2.5,14.1h-.1Z"/>
  <path class="st3" d="M152.3,483.3h-1.7c-1.7-4.6-1.7-9.2-.7-14.1,1,4.8,2.1,9.4,2.5,14.1h-.1Z"/>
  <path class="st3" d="M156.4,496.8h-1.7c-1.7-4.6-1.7-9.2-.7-14.1,1,4.8,2.1,9.4,2.5,14.1h-.1Z"/>
  <path class="st3" d="M198.2,535c3.5.8,7.1,2.9,8.9,6.9-3.5-1.6-7.3-3.2-8.9-6.9Z"/>
  <path class="st3" d="M197.1,533.5c3.5.8,7.1,2.9,8.9,6.9-3.5-1.6-7.3-3.2-8.9-6.9Z"/>
  <path class="st3" d="M200.7,536.9c3.5.8,7.1,2.9,8.9,6.9-3.5-1.6-7.3-3.2-8.9-6.9Z"/>
  <path class="st3" d="M194.5,409c5.7-7.2,13.4-11,19.3-16.7-5.8,6.7-11.2,13-19.3,16.7Z"/>
  <path class="st3" d="M205.8,398.5c5.7-7.2,13.4-11,19.3-16.7-5.8,6.7-11.2,13-19.3,16.7Z"/>
  <path class="st3" d="M263.9,338.3c-1.4-1.8-1.3-4.3-1.9-6.5,1.8-.3,2.1,1.8,2.6,3.2s0,2.3-.7,3.2h0Z"/>
  <path class="st3" d="M237.1,293.2c-.4,0-1.5-.2-1.1.5-1.1-.4-1.4-1.3-1.9-1.6l.7-1.1c1,1.1,2.6.8,2.3,2.2Z"/>
  <circle class="st3" cx="215.4" cy="390.6" r=".5"/>
  <circle class="st3" cx="239.4" cy="296.6" r=".5"/>
  <circle class="st3" cx="129.4" cy="129.6" r=".5"/>
  <circle class="st3" cx="135.4" cy="155.6" r=".5"/>
  <circle class="st3" cx="141.4" cy="127.6" r=".5"/>
  <path class="st3" d="M236,293.7c-.4-.7.7-.5,1.1-.5-.2,1-.5.9-1.1.5Z"/>
  <path class="st3" d="M149.2,443.7c1.1-1.3,2-2.6,3.8-3.6-.8,1.6-1.7,2.8-3.8,3.6Z"/>
  <path class="st3" d="M148.9,442c1.1-1.3,2-2.6,3.8-3.6-.8,1.6-1.7,2.8-3.8,3.6Z"/>
  <path class="st3" d="M150.8,441.8c1.1-1.3,2-2.6,3.8-3.6-.8,1.6-1.7,2.8-3.8,3.6Z"/>
  <path class="st3" d="M148.9,443.6c1.1-1.3,2-2.6,3.8-3.6-.8,1.6-1.7,2.8-3.8,3.6Z"/>
  <path class="st3" d="M149.2,444.3c1.1-1.3,2-2.6,3.8-3.6-.8,1.6-1.7,2.8-3.8,3.6Z"/>
  <path class="st3" d="M144.1,143.6c.8-.9,1.3-1.9,2.9-2.6-.4,1.3-1,2.2-2.9,2.6Z"/>
  <circle class="st3" cx="136.9" cy="153.1" r="1"/>
  <circle class="st3" cx="234.4" cy="58.6" r=".5"/>
  <path class="st2" d="M161.9,363.1c0,3-.8,6.5,1,9v17.8c-.2.8-1.2,1.8-1.2,2.7,0,1.7.3,3,2.2,2.5l-.2,15.1c0,1.3-1.5,1.5-2.3,1.4s-1.5-.4-1.5-1.4v-11.9c0-2.4,2.4-5.2-.1-7.4l-.2-4.8-.7-27.1c-.3-9.9-2.2-19.7-.3-28.9l2-2.2c0,2.7,1.3,4.8,1.1,8.3-.6,9.2.2,18.2.2,27h0Z"/>
  <path class="st2" d="M113.8,364.3c-2.5,3.1-2.2-14.5-.5-13.3,1.9,4,.6,8.9.5,13.3Z"/>
  <path class="st2" d="M113.8,337.3c-2.7,1.8-1.5-8.4-1.6-9.4,3.1-.9,1.8,8.1,1.6,9.4Z"/>
  <path class="st2" d="M32,116.1c.3,1.3-3.9,1.7-4,0s3.5-1.9,4,0Z"/>
  <path class="st2" d="M113.8,342.8c0,.8,0,1.7,0,2.5-.5.5-.9.2-1.3-.2s-.7-.9-.5-1.5,1-1.4,1.7-.8Z"/>
  <path class="st2" d="M113.4,350.1c-1.3.2-1.6-.9-.2-1.1,0,.4.2.7.2,1.1Z"/>
  <path class="st2" d="M55.8,385v5.2c-.9-.4-.6-2.1-3-2.5l-.2,47.4c0,1.3,0,2.5-1,3-2.7-12.9,0-43.9-.2-56.9,1,2,1.5,4.9,4.2,3.9h.2Z"/>
  <path class="st2" d="M157.7,413.9c-13.7,11.6-7,4.3-17.6,6.3-.5-5.4,8.9-.5,5.5-4.2s-1.2-1-1.4-2.3c4.2-1.1,8.8-.9,13.5.2Z"/>
  <path class="st2" d="M112.5,435c-13.7,11.6-7,4.3-17.6,6.3-.5-5.4,8.9-.5,5.5-4.2s-1.2-1-1.4-2.3c4.2-1.1,8.8-.9,13.5.2Z"/>
  <path class="st2" d="M51.7,377c-.7-.1-1-.5-1.3-.9-.4-.7.5-1.6.5-2.2v-18.8c.4,0,1.1-.2,1.5,0,1.9,1.2-.7,21-.7,21.9Z"/>
  <path class="st2" d="M160.1,398.3c-1.7-1.8-1.7-5.4-.1-7.4,2.5,2.2.2,5,.1,7.4Z"/>
  <path class="st2" d="M164.1,395.1c-1.9.5-2.1-.8-2.2-2.5s.9-1.8,1.1-2.7c1.6,1.1,1.1,3.5,1.1,5.2h0Z"/>
  <path class="st2" d="M125.1,452.1h-1c.7-1.1.3-5,2.7-3.7,1.3.9-1.2,2.9-1.7,3.7Z"/>
  <path class="st2" d="M98.3,442.1h-2.3c.2-.8-.4-2.9,1.2-2.9s1,2.2,1.2,2.9h0Z"/>
  <path class="st2" d="M56.3,441.9c-1.4,0-2.9-.8-3.2-1.8.7,0,1.5-.1,2.4.2s1.5.8.9,1.7h-.1Z"/>
  <circle class="st2" cx="137.4" cy="418.6" r=".5"/>
  <path class="st2" d="M264.7,266.9c-10-1.6-24,10.6-33.4-3.1,3.1-3.9,6.7-1,9.9-2.2-.5-7.4-6.2-3.3-8.3-5.5s-4.8-8.9-9.7-4.7c-1.1.9-2.9,2.3-4.3,2.3l.3-107.7c5.5-.7,8.5,5.4,11.9,3s.3-4.5,1.1-5.3c1.7.4,11.1-7.1,10.7-9.8,1-.8,4.4,0,4.7,1.7s-1.3,3.3-1,4c.5,1.2,2.3.4,3,.7,6.5,2.9,1.9-8.6,12.2-3.1-1.5,1.8-3.6,0-4.6,3.5,3.1,1.3,7.7,4.4,7.7,9.4l.6,93c0,8.3,0,16.2-.8,23.7h0ZM248.3,261.3c-2-2.9-4.2-2.8-5.4.1,2,1.2,3.8,1.9,5.4-.1Z"/>
  <path class="st2" d="M269.5,266.9c-10-1.6-24,10.6-33.4-3.1,3.1-3.9,6.7-1,9.9-2.2-.5-7.4-6.2-3.3-8.3-5.5s-4.8-8.9-9.7-4.7c-1.1.9-2.9,2.3-4.3,2.3l.3-107.7c5.5-.7,8.5,5.4,11.9,3s.3-4.5,1.1-5.3c1.7.4,11.1-7.1,10.7-9.8,1-.8,4.4,0,4.7,1.7s-1.3,3.3-1,4c.5,1.2,2.3.4,3,.7,6.5,2.9,1.9-8.6,12.2-3.1-1.5,1.8-3.6,0-4.6,3.5,3.1,1.3,7.7,4.4,7.7,9.4l.6,93c0,8.3,0,16.2-.8,23.7h0ZM253.1,261.3c-2-2.9-4.2-2.8-5.4.1,2,1.2,3.8,1.9,5.4-.1Z"/>
  <path class="st2" d="M259.7,266.9c-10-1.6-24,10.6-33.4-3.1,3.1-3.9,6.7-1,9.9-2.2-.5-7.4-6.2-3.3-8.3-5.5s-4.8-8.9-9.7-4.7c-1.1.9-2.9,2.3-4.3,2.3l.3-107.7c5.5-.7,8.5,5.4,11.9,3s.3-4.5,1.1-5.3c1.7.4,11.1-7.1,10.7-9.8,1-.8,4.4,0,4.7,1.7s-1.3,3.3-1,4c.5,1.2,2.3.4,3,.7,6.5,2.9,1.9-8.6,12.2-3.1-1.5,1.8-3.6,0-4.6,3.5,3.1,1.3,7.7,4.4,7.7,9.4l.6,93c0,8.3,0,16.2-.8,23.7h0ZM243.3,261.3c-2-2.9-4.2-2.8-5.4.1,2,1.2,3.8,1.9,5.4-.1Z"/>
  <path class="st2" d="M264.2,254.7c-.4,3.2,1.2,7.7,3.7,9.1s4.6,1.5,7.2,1.5h13c.7,9.5,13.2-1.1,18,8.1-2.5,1.4-4.7.6-5.3,3.9,3.7-.6,4.7,2,6.3,4.3s-3.8,0-4.6,1.3c-.7,1.3-.2,1.6.2,1.7l1.8.5c4.2,1.2,8.8.4,12.4,2.6,1.3,3.2-2.2.2-3.8,2.3-1.6,2.1-.1,1.4.8,1.6s.8,0,1.6.7c-1.6,1.2-3.2-.5-4.1,1.2,3.3.7,6.3-.4,8.5,1.9l-5.5,1.8c3.6,8.7,11.9-2.9,14.7,3.2-1.9,1.4-4.6-1.1-6.3,2.6,14.5,1.4,4.8,4.5,24,5.8,0,1.6-.6,3.4-.9,5-1.1.6-2.3,1.1-4,1.1l-68.7.3c-5.6-12.9-22-32.2-33.1-39.4-7.3-6.3-14.7-12.1-22.7-16.5-.6-4.5,0-9.1,0-13.7,1.4,0,3.2-.9,4.3-1.7,5.1-3,7,1.3,9.9,3.4,2.9,2.1,8-1.4,8.5,3.9-3.2.8-7-1.2-10.1,1.6,9.6,9.8,23.9,1.1,34.1,2.2v-.2h-.1.2Z"/>
  <path class="st2" d="M267.9,250.9c-.4,3.2,1.2,7.7,3.7,9.1s4.6,1.5,7.2,1.5h13c.7,9.5,13.2-1.1,18,8.1-2.5,1.4-4.7.6-5.3,3.9,3.7-.6,4.7,2,6.3,4.3s-3.8,0-4.6,1.3c-.7,1.3-.2,1.6.2,1.7l1.8.5c4.2,1.2,8.8.4,12.4,2.6,1.3,3.2-2.2.2-3.8,2.3-1.6,2.1-.1,1.4.8,1.6s.8,0,1.6.7c-1.6,1.2-3.2-.5-4.1,1.2,3.3.7,6.3-.4,8.5,1.9l-5.5,1.8c3.6,8.7,11.9-2.9,14.7,3.2-1.9,1.4-4.6-1.1-6.3,2.6,14.5,1.4,4.8,4.5,24,5.8,0,1.6-.6,3.4-.9,5-1.1.6-2.3,1.1-4,1.1l-68.7.3c-5.6-12.9-22-32.2-33.1-39.4-7.3-6.3-14.7-12.1-22.7-16.5-.6-4.5,0-9.1,0-13.7,1.4,0,3.2-.9,4.3-1.7,5.1-3,7,1.3,9.9,3.4,2.9,2.1,8-1.4,8.5,3.9-3.2.8-7-1.2-10.1,1.6,9.6,9.8,23.9,1.1,34.1,2.2v-.2h-.1.2Z"/>
  <path class="st2" d="M369.3,199.1l-23.2.3c-7,0-13.6-1.1-20,0-.8-7.6,0-15.2,0-22.8,2.3-.9,4.3,1.4,6.8,1.6l10.6.7c.7.9.8,3.3,2.5,3.2l14.7-1.1c1.8-.1,1,3.3,1.8,3.9,2.2,1.7,3.6-1.3,6.2-3.2,1.4,6.3.6,11.8.7,17.4h-.1Z"/>
  <path class="st2" d="M373.6,204.7l-29.2.3c-8.8,0-17.1-1.1-25.1,0-1-7.6,0-15.2,0-22.8,2.9-.9,5.4,1.4,8.5,1.6l13.3.7c.9.9,1,3.3,3.1,3.2l18.5-1.1c2.3-.1,1.3,3.3,2.3,3.9,2.8,1.7,4.5-1.3,7.8-3.2,1.8,6.3.8,11.8.9,17.4h-.1,0Z"/>
  <path class="st2" d="M363.5,204.6l-23.2-.5c-7-.2-13.6-1.6-20-.7-.5-7.6.5-15.2.8-22.8,2.3-.8,4.2,1.6,6.7,1.8l10.6,1.1c.7.9.7,3.3,2.4,3.3l14.7-.6c1.8,0,.9,3.3,1.7,4,2.1,1.8,3.6-1.2,6.3-3,1.2,6.3.2,11.8,0,17.4h0Z"/>
  <path class="st2" d="M326.2,176.1c0,7.6-.7,15.2,0,22.8-2,.7-1.9,3.2-4.8,4.6-.3-9.8-.2-19.1.1-28.9l.9-29.7c.1-4.4,2-8.5,0-13.3s3.2-4.6,1.7-6.5c.9.4,1.8,1.5,1.8,3l.2,48h0Z"/>
  <path class="st2" d="M349.7,264.9c.6,2,1.3,3.6,2,4v8s-4.4-2.5-6.6,0-2-.4-3,0c3.6-6.7-20.7-6.3-17.3-4.2l-35.8,4.2h-13.1c-2.6,0-5.2-1.6-7.1-6,0-3.6.3-7.6.8-10.7h74c2.3.4,4.2,6,6.1,4.4v.4h0Z"/>
  <path class="st4" d="M225.9,111.3c-1.9,1.2-3.5.8-1.8-.8.9-.7,1.2-1.3,1.6-1.5s1.3,0,1.5.5c.3.7,0,1.4-1.3,1.7h0Z"/>
  <circle class="st4" cx="228.4" cy="108.6" r=".5"/>
  <path class="st2" d="M60.9,134.3c3,4.9-1.5,6.7-2.7,9.7-.8-3.6.3-7.2,2.7-9.7Z"/>
  <path class="st2" d="M47.2,94.2c-2.3,1.1-3.9,1-5.4,1.5,0-.9-.7-1.8-.4-2,.9-.9,4.2-.4,5.8.5Z"/>
  <path class="st2" d="M58,123.1c.3,1.3-3.9,1.7-4,0s3.5-2,4,0Z"/>
  <path class="st2" d="M55.1,133.7c-1.8.7-3.7.7-6.1,0,1.4-1,3.1-.9,6.1,0Z"/>
  <path class="st2" d="M77.3,126.2c.6.7,0,1.5-.8,1.8s-1.9,0-2.5-.8c.3-1.4,2.2-1.1,3.3-1Z"/>
  <path class="st2" d="M72.3,127.1c.5.5.2,1-.2,1.3-.7.6-1.5.4-2.2.4-.6-.8.2-1.5.8-1.7s1.1,0,1.5,0h0Z"/>
  <circle class="st2" cx="55.4" cy="140.6" r=".5"/>
  <circle class="st2" cx="48.4" cy="82.6" r=".5"/>
  <path class="st3" d="M195.9,228.1c-2.6-.4.4-16.6-2-16.2,1.2-5.3-.8-11.5.7-16.8.9.4,1.2-.7,1.2-1.5s-.5-1.2-.9-1.7l.2-17.6c.7.6,1.3-.1,1.6-.9s-.5-1.1-.9-1.6l1.1-31.7c.1-4,2.2-8.3.1-12.5-4.6,1-7.4,4.2-11,5.5-.6-2.2,11.3-8.2,14.8-10l-4.2,88.8c-.3,5.7-1.7,10.8-.9,16l.2.2h0Z"/>
  <path class="st3" d="M196.9,140.2c-1.5.6-2.2-2.4-3.5-2.6-3.4-.7-6.5-.9-7.4-4.3,3.6-1.4,6.3-4.6,11-5.5,2.1,4.1,0,8.5-.1,12.5h0Z"/>
  <path class="st3" d="M196.1,228.1c-.3,5,1,10.1-1,15.9-3.6-6.3-1.2-12.7-1.9-18.9s0-9.1.9-13.2c2.4-.4-.6,15.8,2,16.2Z"/>
  <path class="st3" d="M194.9,195.1c-.4-.4-.8-1-.7-1.6s.1-1.9,1-1.6c.4.5,1,1.1.9,1.7s-.3,1.9-1.2,1.5h0Z"/>
  <path class="st3" d="M176.9,136.5c.9-.9,1.7-.6,2.1,0s0,1.6-1.4,1.6-2.2,0-.7-1.6h0Z"/>
  <path class="st3" d="M195.4,174.3c0-.8-.3-2.3.7-2.5.4.4,1,1,.9,1.6-.3.8-.9,1.5-1.6.9h0Z"/>
  <circle class="st3" cx="184.4" cy="133.6" r=".5"/>
  <circle class="st3" cx="182.4" cy="134.6" r=".5"/>
  <circle class="st3" cx="180.4" cy="135.6" r=".5"/>
  <circle class="st3" cx="174.4" cy="138.6" r=".5"/>
  <circle class="st3" cx="172.4" cy="139.6" r=".5"/>
  <path class="st2" d="M267.9,393.7c1.4,4.4,1.3,8.9.5,14-.7,4.2,0,8.4-.3,12.3l-8.7-.9c-1.4,1.6-1.4,3.3-2.7,5.4,1.1,1.3,2.6,1.1,4.3,1.6-8,4.3,5.9,3,5.9,3v25.8c1.4,7.9,1.8,15.7.4,23l-6.2-.4c2.2-6.8,1.3,0-8.5-5.7s-5.9.9-7-3.1c0-2.1,16.6,2.8,8.8-1.7-1.2-.2-2.5-.6-2.5-1.4s2.2-1.3,2.1-1.9c-.5-2.2-3.6-1.1-5.8-.9-.6-1.7,0-3.6-.3-5.4-4.2-1-8.1,1.3-11.9-.5,1.9-1.8,5.6-.2,5.9-2.8s-1.9-2.6-1.6-3.5c.5-1.6,2.9-.9,3.8-1.5,8.1-5.5,10.6-3,11.6-5.2s1.3-3.7.4-4.7c-1.7-2-5.1-1.6-7.7-3.4,1.7-1.7,4-1.8,6-3.5-1.2-1.4-2.6-1-3.5-2.5,2.3-.5,4.7-4.4,2.7-6s-6.4.4-9.2-.8c-.3-2.8,5.8-2.9,2.9-5.2.2-.7.7-1.3.5-2.6-1.3.4-2.9.2-3.8.8.3-3.3,4-5.1,6.9-6.2s3.9-3.6,5.8-6,5.9-5.3,7.2-8.8c1.3-.4,2.3-1.7,4-1.2h0Z"/>
  <path class="st2" d="M269.7,391.9c1.4,4.4,1.3,8.9.5,14-.7,4.2,0,8.4-.3,12.3l-8.7-.9c-1.4,1.6-1.4,3.3-2.7,5.4,1.1,1.3,2.6,1.1,4.3,1.6-8,4.3,5.9,3,5.9,3v25.8c1.4,7.9,1.8,15.7.4,23l-6.2-.4c2.2-6.8,1.3,0-8.5-5.7s-5.9.9-7-3.1c0-2.1,16.6,2.8,8.8-1.7-1.2-.2-2.5-.6-2.5-1.4s2.2-1.3,2.1-1.9c-.5-2.2-3.6-1.1-5.8-.9-.6-1.7,0-3.6-.3-5.4-4.2-1-8.1,1.3-11.9-.5,1.9-1.8,5.6-.2,5.9-2.8s-1.9-2.6-1.6-3.5c.5-1.6,2.9-.9,3.8-1.5,8.1-5.5,10.6-3,11.6-5.2s1.3-3.7.4-4.7c-1.7-2-5.1-1.6-7.7-3.4,1.7-1.7,4-1.8,6-3.5-1.2-1.4-2.6-1-3.5-2.5,2.3-.5,4.7-4.4,2.7-6s-6.4.4-9.2-.8c-.3-2.8,5.8-2.9,2.9-5.2.2-.7.7-1.3.5-2.6-1.3.4-2.9.2-3.8.8.3-3.3,4-5.1,6.9-6.2s3.9-3.6,5.8-6,5.9-5.3,7.2-8.8c1.3-.4,2.3-1.7,4-1.2h0Z"/>
  <path class="st2" d="M264.7,395c1.4,4.4,1.3,8.9.5,14-.7,4.2,0,8.4-.3,12.3l-8.7-.9c-1.4,1.6-1.4,3.3-2.7,5.4,1.1,1.3,2.6,1.1,4.3,1.6-8,4.3,5.9,3,5.9,3v25.8c1.4,7.9,1.8,15.7.4,23l-6.2-.4c2.2-6.8,1.3,0-8.5-5.7s-5.9.9-7-3.1c0-2.1,16.6,2.8,8.8-1.7-1.2-.2-2.5-.6-2.5-1.4s2.2-1.3,2.1-1.9c-.5-2.2-3.6-1.1-5.8-.9-.6-1.7,0-3.6-.3-5.4-4.2-1-8.1,1.3-11.9-.5,1.9-1.8,5.6-.2,5.9-2.8s-1.9-2.6-1.6-3.5c.5-1.6,2.9-.9,3.8-1.5,8.1-5.5,10.6-3,11.6-5.2s1.3-3.7.4-4.7c-1.7-2-5.1-1.6-7.7-3.4,1.7-1.7,4-1.8,6-3.5-1.2-1.4-2.6-1-3.5-2.5,2.3-.5,4.7-4.4,2.7-6s-6.4.4-9.2-.8c-.3-2.8,5.8-2.9,2.9-5.2.2-.7.7-1.3.5-2.6-1.3.4-2.9.2-3.8.8.3-3.3,4-5.1,6.9-6.2s3.9-3.6,5.8-6,5.9-5.3,7.2-8.8c1.3-.4,2.3-1.7,4-1.2h0Z"/>
  <path class="st2" d="M269.4,407.1c1.4,4.4,1.3,8.9.5,14-.7,4.2,0,8.4-.3,12.3l-8.7-.9c-1.4,1.6-1.4,3.3-2.7,5.4,1.1,1.3,2.6,1.1,4.3,1.6-8,4.3,5.9,3,5.9,3v25.8c1.4,7.9,1.8,15.7.4,23l-6.2-.4c2.2-6.8,1.3,0-8.5-5.7s-5.9.9-7-3.1c0-2.1,16.6,2.8,8.8-1.7-1.2-.2-2.5-.6-2.5-1.4s2.2-1.3,2.1-1.9c-.5-2.2-3.6-1.1-5.8-.9-.6-1.7,0-3.6-.3-5.4-4.2-1-8.1,1.3-11.9-.5,1.9-1.8,5.6-.2,5.9-2.8s-1.9-2.6-1.6-3.5c.5-1.6,2.9-.9,3.8-1.5,8.1-5.5,10.6-3,11.6-5.2s1.3-3.7.4-4.7c-1.7-2-5.1-1.6-7.7-3.4,1.7-1.7,4-1.8,6-3.5-1.2-1.4-2.6-1-3.5-2.5,2.3-.5,4.7-4.4,2.7-6s-6.4.4-9.2-.8c-.3-2.8,5.8-2.9,2.9-5.2.2-.7.7-1.3.5-2.6-1.3.4-2.9.2-3.8.8.3-3.3,4-5.1,6.9-6.2s3.9-3.6,5.8-6,5.9-5.3,7.2-8.8c1.3-.4,2.3-1.7,4-1.2h0Z"/>
  <path class="st2" d="M250.6,454.5c-1.8-2.6-4.7-3.5-7.1-1.4,2.5,1.1,4.6,2.1,7.1,1.4Z"/>
  <path class="st2" d="M257.1,453.6c-2.6-.9-4-1-5.1,0,2,.7,3.6.7,5.1,0Z"/>
  <path class="st2" d="M258.3,467.3c-1,1.3.5,2.1,1.2,1.8s1.2.3,1.6-.5-.1-1.5-.6-1.5-1.8-.3-2.2.2Z"/>
  <path class="st2" d="M247.3,417.7c-9.8,6-15.7,14-28.2,18.5-.4-.1-.8,0-1.2-.2-.2-1.2-.2-2.5,0-3.7,2.3-1.1,4.5-2.4,6.9-3.2s1.6.2,2.1-.6.2-1,.2-1.4c2.7-2.1,5.3-4.6,8.7-5.1s1.4.1,2.2-.3.5-1.2.9-1.7c1.1-1.9,3.2-2.7,5-3.9s2.5-.5,3.8-.8c.2,1.3-.3,1.9-.5,2.6v-.2h.1Z"/>
  <path class="st2" d="M267.1,484.1l-1.1.2c-.4-.4-1.9.3-2-1.1,2.1,0,3.3-.9,3.4-2.4.8.1,1.7.5,1.5,1.5s-1.6,1.1-1.8,1.8Z"/>
  <path class="st3" d="M194.9,319.7l-1.6.2c-2.6-3-6.6-4.4-9-7.8,7.2,1.3,11.5,8.7,10.6,7.7h0Z"/>
  <path class="st3" d="M193.2,320.2l-1.6.2c-2.6-3-6.6-4.4-9-7.8,7.2,1.3,11.5,8.7,10.6,7.7h0Z"/>
  <path class="st2" d="M266.8,116.9c-.2,5.1,3.3,4.8,3.1.5.2-.5.4.7.5,0,0,1.1.5,2.1.5,6.3v135.4l-.3-.6c0-4.9.2-9.9.2-14.6-3.4-3.5-1.7-12.9-4.3-16.8.3-10.9.8-3.6,1.1-7.7-.5-17.6-1.9,16.2-2.6-9.1l.9-5.3c-.4-6.8-.9-3.3-1.5-5.6.2-5.1.4-.2.7-3.4-.1-2.1-.2-2-.3-2.2-.2-.4-.2-3.4-.1-4.5.3-6,.9,2.6.7-6.7-.7-6.4-1.4-4.2-2.2-7.5l-.3-1.4v-4.8c.1-3.6,1.2,5.7.8-3.8-.3-6.8-.4-14.3-1.1-12.5.1-9.5.5-7.5.9-11.4-.8-26.5-3,4.2-3.1-23.4l6.5-.5v-.3h-.1Z"/>
  <path class="st2" d="M351.9,264.1l-.2,48.3c-1.5-.3-2.8-.9-3.8-2.1v-44.1c0-1.4-2.1-1.7-2.7-2.1,2.1-.6,4.4,0,6.6,0h.1Z"/>
  <path class="st4" d="M162.1,318.1c0,.5-.6.9-1,1-1-.1-1.2-.9-.4-1s1.1,0,1.4,0Z"/>
  <circle class="st2" cx="322.9" cy="139.1" r="1"/>
  <path class="st2" d="M268.2,427.1l-.3-3v-4.2c.3-3.9-.4-8.1.3-12.3.9-5.1,1-9.6-.7-14-.9-3.1,2.1-6.5,2.1-9.6,1.7.7,1.3,2.9,1.3,5l-.4,37.9c0,.7-2.3.3-2.5.2h.2Z"/>
  <path class="st2" d="M269.9,490.5l-.3-7.7v-10.8c.3-10-.4-20.8.3-31.5.9-13.1,1-24.6-.7-35.9-.9-7.9,2.1-16.7,2.1-24.6,1.7,1.8,1.3,7.4,1.3,12.8l-.4,97.1c0,1.8-2.3.8-2.5.5h.2Z"/>
  <path class="st2" d="M263.9,395c-1.3,3.5-4.7,5.7-7.2,8.8s-3.2,4.9-5.8,6c-.6-2.4,2.4-3.3,3.6-5.2,2.6-3.9,5-8,9.4-9.5h0Z"/>
  <path class="st2" d="M218,432.1c-.3,1.2-.3,2.5,0,3.7-1-.5-2.2-.6-3.9-1.2,1.1-1.5,2.6-1.8,4-2.5h-.1Z"/>
  <path class="st2" d="M239,419.9c-.3.6-.3,1.4-.9,1.7s-1.5.2-2.2.3c-.7-.9.4-1.4.9-1.6.8-.3,1.5-.4,2.2-.4Z"/>
  <path class="st2" d="M227.1,427c0,.4,0,1-.2,1.4-.4.8-1.5.4-2.1.6-.4-.8.2-1.4.8-1.7s1.1,0,1.5-.3Z"/>
  <path class="st2" d="M56.2,381.1c.7-.3.8.2.8.7,0,.8,0,1.8-.9,1.7-.6-.1-1.1-.2-1.5-.3-.6-.1-1-.7-.6-1.4s1.4-.5,2.1-.7h.1Z"/>
  <path class="st2" d="M267.9,420v1.9c-.6-.5-1.5,0-2,.7s0,1.2.6,1.4.9.2,1.4.3l.3,3-.3,1.9c-1.2,0-15.2,1.3-7.1-3-1.7-.6-3.2-.4-4.3-1.6,1.3-2.1,1.4-3.8,2.7-5.4l8.7.9h0Z"/>
  <path class="st2" d="M271,418.3v1.9c-.6-.5-1.5,0-2,.7s0,1.2.6,1.4.9.2,1.4.3l.3,3-.3,1.9c-1.2,0-15.2,1.3-7.1-3-1.7-.6-3.2-.4-4.3-1.6,1.3-2.1,1.4-3.8,2.7-5.4l8.7.9h0Z"/>
  <path class="st3" d="M127.9,207.2c-1.4.3-2.9-.6-3.7-2.3l-4.3-8.6c-2.6-5.2-1.9-11.4-1.8-17.2,1.6-5,1.8-10.6,5.8-14.2,1.5-.9,2.2.6,2.5,1.8s-.7,2.1-.6,3.1c.8,12.7,2.2,25,2.2,37.4h0Z"/>
  <path class="st3" d="M217,78.5c-3.2,4-6.8,4.7-9.9,6.3,3.4-2.9,6.7-5,9.9-6.3Z"/>
  <path class="st2" d="M248.3,249.9c-1.6,1.4-3.4.9-5.4,0,1.2-2,3.4-2,5.4,0Z"/>
  <path class="st2" d="M342.3,264.1c1.1,1.4-18.7,1.5-17.4-.2-3.4-1.3,20.9-1.4,17.4.2Z"/>
  <path class="st2" d="M250.6,454.5c-2.5.7-4.6-.3-7.1-1.4,2.4-2.1,5.3-1.1,7.1,1.4Z"/>
  <path class="st2" d="M258.3,467.3c.4-.5,1.6-.1,2.2-.2s.9.8.6,1.5-1.1.4-1.6.5c-.7.2-2.2-.6-1.2-1.8Z"/>
  <path class="st2" d="M257.1,453.6c-1.4.7-3,.7-5.1,0,1.1-1,2.4-.9,5.1,0Z"/>
  <path class="st2" d="M263.6,450.2c-1.4.7-3,.7-5.1,0,1.1-1,2.4-.9,5.1,0Z"/>
  <path class="st2" d="M223.3,431.1v2.3c-.6,0-1.1-.2-1.4-.3-.7-.2-.9-.9-.6-1.4.6-.7,1.4-1.2,2-.7h0Z"/>
  <path class="st2" d="M313.9,261.7c-2,1.9,27.1,1.8,25.5.2,1.4-.2,3,.3,4.4,0,.8.4,4.1.8,4.1,2.4v50.8l-2.9-.2c.4-1.8,1.3-3.7,1.3-5.5-28-1.3-13.8-4.8-34.9-6.3,2.5-4.1,6.3-1.4,9.1-2.9-3.9-6.6-16,6.1-21.3-3.4l7.9-2c-3.2-2.6-7.4-1.2-12.3-2.1,1.4-1.9,3.7,0,6.1-1.3-1.2-.8-1.7-.8-2.4-.8-1.4-.2-1.6-1.3-1.2-1.7,2.3-2.3,7.5,1,5.6-2.5-5.4-2.4-11.9-1.6-18.2-2.8l-2.7-.5c-.5,0-.6-1.4-.2-1.8,1-1.4,9.9,2.1,6.6-1.4s-3.7-5.4-9.1-4.7c.9-3.6,4-2.8,7.7-4.3-6.9-9.9-25.2,1.6-26.1-8.8l52.9-.2v-.2h.1Z"/>
  <path class="st2" d="M319.3,259.1c-2,1.9,27.1,1.8,25.5.2,1.4-.2,3,.3,4.4,0,.8.4,4.1.8,4.1,2.4v50.8l-2.9-.2c.4-1.8,1.3-3.7,1.3-5.5-28-1.3-13.8-4.8-34.9-6.3,2.5-4.1,6.3-1.4,9.1-2.9-3.9-6.6-16,6.1-21.3-3.4l7.9-2c-3.2-2.6-7.4-1.2-12.3-2.1,1.4-1.9,3.7,0,6.1-1.3-1.2-.8-1.7-.8-2.4-.8-1.4-.2-1.6-1.3-1.2-1.7,2.3-2.3,7.5,1,5.6-2.5-5.4-2.4-11.9-1.6-18.2-2.8l-2.7-.5c-.5,0-.6-1.4-.2-1.8,1-1.4,9.9,2.1,6.6-1.4s-3.7-5.4-9.1-4.7c.9-3.6,4-2.8,7.7-4.3-6.9-9.9-25.2,1.6-26.1-8.8l52.9-.2v-.2h.1Z"/>
  <path class="st2" d="M48.4,95c-.8,1.5,11.3,1.4,10.6.2.6-.2,1.2.2,1.8,0,.3.3,1.7.6,1.7,1.9v40.5l-1.2-.2c.2-1.4.5-2.9.5-4.4-11.7-1-5.7-3.8-14.5-5,1-3.3,2.6-1.1,3.8-2.3-1.6-5.3-6.7,4.9-8.9-2.7l3.3-1.6c-1.3-2.1-3.1-1-5.1-1.7.6-1.5,1.5,0,2.5-1-.5-.6-.7-.6-1-.6-.6-.2-.7-1-.5-1.4,1-1.8,3.1.8,2.3-2-2.2-1.9-5-1.3-7.6-2.2l-1.1-.4c-.2,0-.2-1.1,0-1.4.4-1.1,4.1,1.7,2.7-1.1s-1.5-4.3-3.8-3.7c.4-2.9,1.7-2.2,3.2-3.4-2.9-7.9-10.5,1.3-10.9-7l22-.2v-.2h.2Z"/>
  <path class="st2" d="M53.7,90.4c-.8,1.5,11.3,1.4,10.6.2.6-.2,1.2.2,1.8,0,.3.3,1.7.6,1.7,1.9v40.5l-1.2-.2c.2-1.4.5-2.9.5-4.4-11.7-1-5.7-3.8-14.5-5,1-3.3,2.6-1.1,3.8-2.3-1.6-5.3-6.7,4.9-8.9-2.7l3.3-1.6c-1.3-2.1-3.1-1-5.1-1.7.6-1.5,1.5,0,2.5-1-.5-.6-.7-.6-1-.6-.6-.2-.7-1-.5-1.4,1-1.8,3.1.8,2.3-2-2.2-1.9-5-1.3-7.6-2.2l-1.1-.4c-.2,0-.2-1.1,0-1.4.4-1.1,4.1,1.7,2.7-1.1s-1.5-4.3-3.8-3.7c.4-2.9,1.7-2.2,3.2-3.4-2.9-7.9-10.5,1.3-10.9-7l22-.2v-.2h.2Z"/>
  <path class="st2" d="M41.3,102.7c-.8,1.5,11.3,1.4,10.6.2.6-.2,1.2.2,1.8,0,.3.3,1.7.6,1.7,1.9v40.5l-1.2-.2c.2-1.4.5-2.9.5-4.4-11.7-1-5.7-3.8-14.5-5,1-3.3,2.6-1.1,3.8-2.3-1.6-5.3-6.7,4.9-8.9-2.7l3.3-1.6c-1.3-2.1-3.1-1-5.1-1.7.6-1.5,1.5,0,2.5-1-.5-.6-.7-.6-1-.6-.6-.2-.7-1-.5-1.4,1-1.8,3.1.8,2.3-2-2.2-1.9-5-1.3-7.6-2.2l-1.1-.4c-.2,0-.2-1.1,0-1.4.4-1.1,4.1,1.7,2.7-1.1s-1.5-4.3-3.8-3.7c.4-2.9,1.7-2.2,3.2-3.4-2.9-7.9-10.5,1.3-10.9-7l22-.2v-.2h.2Z"/>
  <path class="st2" d="M327.9,74c-2.7.8,35.8.7,33.8,0h5.8c1.1.2,5.5.3,5.5.9v20.2h-3.8c.6-.7,1.7-1.5,1.7-2.2-37.1-.5-18.3-1.9-46.2-2.5,3.3-1.6,8.4-.5,12-1.2-5.2-2.6-21.2,2.4-28.2-1.4l10.5-.8c-4.2-1-9.9-.5-16.2-.8,1.9-.8,4.9,0,8.1-.5-1.6-.3-2.3-.3-3.1-.3-1.8,0-2.1-.5-1.6-.7,3.1-.9,10,.4,7.4-1-7.2-1-15.8-.6-24-1.1l-3.5-.2c-.6,0-.8-.5-.3-.7,1.3-.5,13,.9,8.8-.6s-4.9-2.1-12-1.9c1.2-1.4,5.3-1.1,10.3-1.7-9.1-4-33.3.6-34.5-3.5h70-.5Z"/>
  <path class="st2" d="M241.3,89.7c-.6,1.4,13.8-12.5,12.7-12.1.6-.7,1.5-1.4,2.2-2.1.5-.3,2.2-1.8,2.6-1.4l11.4,11.8-1.5,1.3c-.2-.6-.2-1.5-.6-1.9-14.1,13.1-7.9,5.5-18.6,15.2.3-2.1,2.8-3.3,3.9-5-3.4.3-6.6,9.1-11.3,9.4l3.5-4.2c-2.1.9-4,3.3-6.5,5.4.3-1.1,1.8-1.8,2.7-3.2-.8.4-1,.6-1.4.9-.7.6-1.1.4-1,.2.7-1.6,3.9-3.4,2.2-3.2-3.2,2-6.2,5.3-9.6,8l-1.4,1.1c-.3.2-.6,0-.5-.3.2-.8,5.4-4.2,2.9-3.5s-3,.5-5.5,3.3c-.4-1.2,1.3-2.5,2.9-4.7-5.6,1-12.1,12.4-14.9,10.4l26.1-25.3h-.3,0Z"/>
  <path class="st2" d="M230.6,99.1c1.9-.8-13.2,13-13,12.2-.8.7-1.4,1.5-2.3,2.1-.2.4-1.8,2-1.1,2.1l22.2,3.8,1.4-1.4c-1,0-2.3.3-3.1.2,13.8-13.5,5-7,15.2-17.1-3.1.9-3.8,2.9-6,4.1-.9-2.3,10.9-7.2,9.4-10.4l-4.9,3.6c.5-1.7,3.3-3.6,5.4-6-1.6.5-1.9,1.8-3.7,2.8.3-.6.6-.9.8-1.2.6-.7.2-.8-.1-.7-2.2.9-3.4,3.7-4,2.5,1.7-2.8,5.5-5.8,8.1-8.9l1.1-1.3c.2-.2-.3-.4-.7-.3-1.1.4-4.1,4.9-4,3s-.4-2.2,2.6-4.7c-2,.2-3.3,1.7-5.8,3.4-.8-4,13.6-11.9,9.6-13.1l-27.3,25.2h.2Z"/>
  <path class="st2" d="M294.5,76.1c-1.4,1.1,18.4.9,17.4-.4,1-.2,2.1.2,3,0,.5.4,2.8.7,3,2.1v44.1l-2.2-.2c.3-1.6.9-3.2.9-4.8-19.1-1.2-9.4-4.2-23.7-5.5,1.7-3.6,4.3-1.2,6.2-2.5-2.6-5.7-10.9,5.3-14.5-3l5.4-1.7c-2.2-2.2-5.1-1.1-8.4-1.8,1-1.6,2.5,0,4.1-1.1-.8-.7-1.2-.7-1.6-.7-.9,0-1.1-1.1-.8-1.5,1.6-2,5.1.9,3.8-2.2-3.7-2.1-8.1-1.3-12.3-2.5l-1.8-.5c-.3,0-.4-1.2-.2-1.6.7-1.2,6.7,1.9,4.5-1.2s-2.5-4.7-6.2-4.1c.6-3.1,2.7-2.4,5.2-3.7-4.7-8.6-17.1,1.4-17.8-7.2h36Z"/>
  <path class="st2" d="M294.5,73.9c-1.4,1.1,18.4.9,17.4-.4,1-.2,2.1.2,3,0,.5.4,2.8.7,3,2.1v44.1l-2.2-.2c.3-1.6.9-3.2.9-4.8-19.1-1.2-9.4-4.2-23.7-5.5,1.7-3.6,4.3-1.2,6.2-2.5-2.6-5.7-10.9,5.3-14.5-3l5.4-1.7c-2.2-2.2-5.1-1.1-8.4-1.8,1-1.6,2.5,0,4.1-1.1-.8-.7-1.2-.7-1.6-.7-.9,0-1.1-1.1-.8-1.5,1.6-2,5.1.9,3.8-2.2-3.7-2.1-8.1-1.3-12.3-2.5l-1.8-.5c-.3,0-.4-1.2-.2-1.6.7-1.2,6.7,1.9,4.5-1.2s-2.5-4.7-6.2-4.1c.6-3.1,2.7-2.4,5.2-3.7-4.7-8.6-17.1,1.4-17.8-7.2h36Z"/>
  <path class="st2" d="M53.9,352.9c1.1-.3,1.8-1.2,2.8-1.7.5.3.9,1.3.9,2.3l2,58.4c.9,25.3,2.7,55-16.8,72.7-1-.2-.3-1.8,0-2.5,13.4-21.5,12.8-25.2,13.6-50l-2.6-79.1h0Z"/>
  <path class="st2" d="M51.1,351.5c1.1-.3,1.8-1.2,2.8-1.7.5.3.9,1.3.9,2.3l2,58.4c.9,25.3,2.7,55-16.8,72.7-1-.2-.3-1.8,0-2.5,13.4-21.5,12.8-25.2,13.6-50l-2.6-79.1h0Z"/>
  <path class="st2" d="M54.1,221.9l110.3,75.7c-2.8,2.5-6.2,4.6-10.3,4.7l-100.9-68.8c-3.1-2.1-7,2-8.6,2.5,1.7-5.6,6.5-9.3,9.5-14.1h0Z"/>
  <path class="st2" d="M51.8,227.2l110.3,75.7c-2.8,2.5-6.2,4.6-10.3,4.7l-100.9-68.8c-3.1-2.1-7,2-8.6,2.5,1.7-5.6,6.5-9.3,9.5-14.1h0Z"/>
  <path class="st2" d="M29,95.3l31.9,36.7c-.8,1.2-1.8,2.2-3,2.3l-29.2-33.4c-.9-1-2,1-2.5,1.2.5-2.7,1.9-4.5,2.8-6.8Z"/>
  <path class="st2" d="M32.9,98.3l31.9,36.7c-.8,1.2-1.8,2.2-3,2.3l-29.2-33.4c-.9-1-2,1-2.5,1.2.5-2.7,1.9-4.5,2.8-6.8Z"/>
  <path class="st2" d="M26.8,109l31.9,36.7c-.8,1.2-1.8,2.2-3,2.3l-29.2-33.4c-.9-1-2,1-2.5,1.2.5-2.7,1.9-4.5,2.8-6.8Z"/>
  <path class="st2" d="M24.3,112.1l31.9,36.7c-.8,1.2-1.8,2.2-3,2.3l-29.2-33.4c-.9-1-2,1-2.5,1.2.5-2.7,1.9-4.5,2.8-6.8Z"/>
  <path class="st2" d="M31.6,91.1l31.9,36.7c-.8,1.2-1.8,2.2-3,2.3l-29.2-33.4c-.9-1-2,1-2.5,1.2.5-2.7,1.9-4.5,2.8-6.8Z"/>
  <path class="st2" d="M70.2,117.9l-31.6,37c-1.3-.6-2.5-1.4-2.7-2.6l28.7-33.8c.9-1-1.3-1.9-1.6-2.3,2.8,0,4.7,1.2,7.2,1.7h0Z"/>
  <path class="st2" d="M144.2,90.3l-31.6,37c-1.3-.6-2.5-1.4-2.7-2.6l28.7-33.8c.9-1-1.3-1.9-1.6-2.3,2.8,0,4.7,1.2,7.2,1.7h0Z"/>
  <path class="st2" d="M164.9,297.3l-.2,112.8c-1.8-.8-3.6-2.1-4.8-4.9v-103c0-3.2-2.7-4-3.4-4.8,2.7-1.5,5.5.1,8.4,0h0Z"/>
  <path class="st2" d="M160.1,297.3l-.2,112.8c-1.8-.8-3.6-2.1-4.8-4.9v-103c0-3.2-2.7-4-3.4-4.8,2.7-1.5,5.5.1,8.4,0h0Z"/>
  <path class="st2" d="M59.9,147.4l-.2,91.6c-1.5-.6-2.8-1.7-3.8-4v-83.6c0-2.6-2.1-3.2-2.7-3.9,2.1-1.2,4.4,0,6.6,0h.1Z"/>
  <path class="st2" d="M67.3,74.1l99-.5c-.7,1.4-1.8,2.7-4.3,3.5l-90.4.6c-2.8,0-3.5,2.1-4.2,2.5-1.3-2,0-4.1,0-6.2h0Z"/>
  <path class="st2" d="M42.9,82.9l25-8.3c.3,1.5.5,2.9.2,4l-22.8,7.7c-.7.2-.2,2.4-.2,3-1.1-2-1.4-4.3-2.2-6.5h0Z"/>
  <path class="st3" d="M164.6,52.7c4.6,4.2,9.3,9.6,15.9,10.5l-1.1,1.5c-13.9-2.9-23-12.4-26.3-27s3.8-26.4,15.7-33.2c10.8-6.1,24.2-5.3,35.2,2.8s11,11.2,12.1,18.9c0,.7-1.4-.4-1.3-.9.3-2.8-3.5-2.4-4.5-3.4-12.9-13.6-30.5-19.2-44.5-5.3-6.9,6.8-8,17-6,26.4s1.8,7,4.8,9.7h0Z"/>
  <path class="st3" d="M198.5,318c.7.8,1.6,1.6,1.5,3.3l-2.6,57.9c-.2,4.4-1.2,8.2-1,12s.3.8.4,1.2c-1.1-.2-2.4-.5-3.7.8-.8-4.8.5-9.5.8-14.9l3.1-60.2,1.6-.2h-.1Z"/>
  <path class="st3" d="M196.1,391.1c.4.7,1,1.6.6,1.9l-13.2,9.2c-1,.7-2.5.7-3.1,1.6s.1.4.1.5c-.8-.9-1.8-2-3.2-2.8.3-1.5,2.2-1.5,3.5-2.3l14-9.3,1.3,1.2h0Z"/>
</svg>